<svg width="118" height="94" viewBox="0 0 118 94" fill="none" xmlns="http://www.w3.org/2000/svg">
<path d="M111.646 53.2997C111.644 31.5316 98.4171 11.952 78.2339 3.84063C58.0508 -4.27074 34.9676 0.716157 19.9246 16.4378C4.88157 32.1594 0.901752 55.4564 9.87138 75.2871H106.906C110.037 68.3808 111.653 60.8835 111.646 53.2997Z" fill="#EBEFEE"/>
<path fill-rule="evenodd" clip-rule="evenodd" d="M5.88446 75C5.88446 74.3724 6.39323 73.8636 7.02082 73.8636H110.873C111.5 73.8636 112.009 74.3724 112.009 75C112.009 75.6276 111.5 76.1364 110.873 76.1364H7.02082C6.39323 76.1364 5.88446 75.6276 5.88446 75ZM0 75C0 74.3724 0.508767 73.8636 1.13636 73.8636H4.46495C5.09254 73.8636 5.60131 74.3724 5.60131 75C5.60131 75.6276 5.09254 76.1364 4.46495 76.1364H1.13636C0.508767 76.1364 0 75.6276 0 75ZM113.536 73.8636C112.908 73.8636 112.399 74.3724 112.399 75C112.399 75.6276 112.908 76.1364 113.536 76.1364H116.864C117.492 76.1364 118.001 75.6276 118.001 75C118.001 74.3724 117.492 73.8636 116.864 73.8636H113.536Z" fill="#CED7D4"/>
<path d="M58.0547 94C76.2541 94 91.0077 92.6569 91.0077 91C91.0077 89.3431 76.2541 88 58.0547 88C39.8553 88 25.1017 89.3431 25.1017 91C25.1017 92.6569 39.8553 94 58.0547 94Z" fill="#EBEFEE"/>
<path d="M76.0298 43.0105L94.5035 6.5105L92.5063 4.0105H90.0099L70.5377 41.0105L62.5491 44.5105L52.5633 52.0105L31.5932 55.0105H23.1053L21.6075 56.5105L24.6032 65.0105L34.0897 73.5105L50.0669 79.0105H62.5491L73.0341 69.5105L78.027 56.5105L76.0298 49.5105V43.0105Z" fill="white" stroke="white"/>
<path d="M95.7869 4.57083C95.4263 3.45216 94.6613 2.53608 93.6148 1.99877C91.4604 0.88891 88.8047 1.73452 87.6967 3.89258L69.4762 39.2848C69.441 39.3553 69.4147 39.4169 69.3883 39.4874C66.8469 39.4962 64.156 40.7382 61.3684 43.1869C61.0255 43.4864 60.6825 43.7947 60.3396 44.103C58.7743 45.4947 57.1651 46.9305 55.4591 48.058C53.3134 49.4761 50.9831 50.2072 48.1604 51.0176C44.9507 51.9337 41.486 52.5943 37.5816 53.0347C34.2312 53.4135 30.9775 53.6073 27.9261 53.6073C26.6335 53.6073 25.3496 53.5721 24.0833 53.5016C24.0217 53.5016 23.969 53.4928 23.9074 53.4928C23.8195 53.484 23.7404 53.484 23.6524 53.484C22.5532 53.484 21.5068 54.0037 20.8384 54.8757C20.1174 55.827 19.9151 57.0602 20.302 58.1877C21.8849 62.7857 24.6637 66.8992 28.5593 70.4226C31.5931 73.162 35.2952 75.5403 39.5777 77.4957C42.0751 78.632 44.467 79.4952 46.5423 80.1383C46.6918 80.2087 46.8501 80.2528 47.0084 80.2792C50.6578 81.3714 53.2079 81.759 53.375 81.7854C53.3838 81.7854 53.3926 81.7854 53.4014 81.7854C53.4102 81.7854 53.4102 81.7854 53.419 81.7854C53.5773 81.803 53.7355 81.8207 53.8938 81.8207C53.9378 81.8207 53.9818 81.8207 54.0257 81.8207C61.8433 81.5652 67.9637 78.9227 72.2198 73.9635C77.1003 68.2821 79.7472 59.2887 79.3163 49.9078C79.202 47.5119 78.437 45.301 77.1443 43.5657C77.1795 43.5128 77.2146 43.46 77.241 43.4071L95.5055 7.92684C96.0507 6.87863 96.1474 5.6895 95.7869 4.57083ZM69.4147 42.9667C69.6609 42.9667 69.9071 42.9931 70.1533 43.0372C70.338 43.0724 70.5051 43.1165 70.6809 43.1693C71.2086 43.3367 71.7098 43.5481 72.1583 43.7859C72.7035 44.0766 73.1959 44.4113 73.6092 44.7901C73.706 44.8782 73.7939 44.9662 73.8818 45.0631C75.0426 46.2699 75.7549 48.0932 75.8516 50.0663C75.8956 50.9648 75.9044 51.8544 75.8868 52.7441C66.7062 52.5855 63.5757 47.6 62.9689 46.4196C63.1975 46.217 63.4262 46.0144 63.6548 45.8118C65.8005 43.918 67.7351 42.9667 69.4147 42.9667ZM53.9026 79.1429C53.9114 79.1429 53.9114 79.1341 53.9026 79.1429V80.0766V79.1429ZM69.5993 71.6822C66.4248 75.3817 61.9312 77.5574 56.2417 78.174C57.6575 77.4605 59.0293 76.5092 60.1549 75.2408C60.7881 74.5273 60.7265 73.4262 60.0142 72.7832C59.3019 72.149 58.2027 72.2107 57.5608 72.9242C54.5621 76.2978 48.899 76.747 47.5712 76.7999C45.6278 76.2009 43.3854 75.3905 41.0287 74.3159C40.7473 74.1838 40.4747 74.0604 40.1933 73.9283C45.1881 73.162 52.777 70.5987 59.979 62.6623C60.621 61.9489 60.5682 60.8478 59.8647 60.2048C59.1524 59.5618 58.0532 59.6146 57.4113 60.3193C52.9617 65.2344 47.8438 68.4671 42.2158 69.9469C38.0125 71.048 35.0754 70.7044 35.0314 70.6956C34.8731 70.678 34.7148 70.678 34.5654 70.6956C33.2463 69.7972 32.0152 68.8371 30.8984 67.8241C30.5906 67.551 30.3004 67.2691 30.0102 66.9873C30.6082 67.0313 31.2677 67.0666 31.9624 67.0666C34.9435 67.0666 38.7423 66.5469 42.5324 64.609C43.3854 64.1686 43.7284 63.1204 43.2887 62.266C42.849 61.4115 41.8025 61.068 40.9496 61.5084C34.2664 64.9437 27.2754 63.0763 27.1699 63.0499C26.9852 62.9971 26.7918 62.9795 26.6159 62.9883C25.332 61.1297 24.3207 59.139 23.5997 57.0426C23.5909 57.025 23.5997 56.9985 23.6084 56.9809C23.626 56.9545 23.6524 56.9545 23.67 56.9545C23.7491 56.9633 23.8371 56.9633 23.925 56.9721C25.2265 57.0426 26.5719 57.0778 27.9261 57.0778C31.1094 57.0778 34.4862 56.8752 37.9685 56.4876C42.0664 56.0296 45.7069 55.3337 49.1101 54.3648C52.1263 53.5016 54.826 52.656 57.3761 50.9648C58.405 50.2777 59.3723 49.5202 60.3132 48.7362C61.7993 51.0969 66.0379 55.9944 75.6757 56.2146C74.9898 62.354 72.8618 67.8945 69.5993 71.6822ZM92.4277 6.33251L74.5062 41.1258C74.2776 40.976 74.0401 40.8351 73.7939 40.7118C73.4949 40.5532 73.1871 40.4123 72.8706 40.2713L90.7833 5.4781C91.0207 5.02887 91.5747 4.84389 92.032 5.08172C92.2518 5.19623 92.4101 5.39001 92.4892 5.61903C92.5596 5.85686 92.5332 6.1123 92.4277 6.33251Z" fill="#CED7D4"/>
<rect x="80.0234" y="69.5105" width="3.9943" height="4" fill="white"/>
<path d="M73.4863 76.4033C73.029 76.4033 72.5806 76.5883 72.2552 76.9142C71.9298 77.2401 71.7451 77.6894 71.7451 78.1474C71.7451 78.6054 71.9298 79.0547 72.2552 79.3806C72.5806 79.7065 73.029 79.8915 73.4863 79.8915C73.9436 79.8915 74.392 79.7065 74.7174 79.3806C75.0428 79.0547 75.2274 78.6054 75.2274 78.1474C75.2274 77.6894 75.0428 77.2401 74.7174 76.9142C74.392 76.5883 73.9436 76.4033 73.4863 76.4033Z" fill="#CED7D4"/>
<path d="M83.6429 64.2126C83.9683 63.8867 84.153 63.4375 84.153 62.9794C84.153 62.5214 83.9683 62.0722 83.6429 61.7462C83.3176 61.4203 82.8691 61.2354 82.4118 61.2354C81.9545 61.2354 81.5061 61.4203 81.1807 61.7462C80.8553 62.0722 80.6707 62.5214 80.6707 62.9794C80.6707 63.4375 80.8553 63.8867 81.1807 64.2126C81.5061 64.5385 81.9545 64.7235 82.4118 64.7235C82.8691 64.7235 83.3176 64.5385 83.6429 64.2126Z" fill="#CED7D4"/>
<path d="M89.3588 73.9194C88.9016 73.9194 88.4531 74.1044 88.1277 74.4303C87.8023 74.7562 87.6177 75.2055 87.6177 75.6635C87.6177 76.1215 87.8023 76.5708 88.1277 76.8967C88.4531 77.2226 88.9016 77.4076 89.3588 77.4076C89.8161 77.4076 90.2646 77.2226 90.5899 76.8967C90.9153 76.5708 91.1 76.1215 91.1 75.6635C91.1 75.2055 90.9153 74.7562 90.5899 74.4303C90.2646 74.1044 89.8161 73.9194 89.3588 73.9194Z" fill="#CED7D4"/>
<path d="M82.0424 66.9607C79.3779 66.9607 77.2059 69.1364 77.2059 71.8053C77.2059 74.4743 79.3779 76.65 82.0424 76.65C84.7069 76.65 86.8789 74.4743 86.8789 71.8053C86.8789 69.1364 84.7069 66.9607 82.0424 66.9607ZM82.0424 73.1706C81.2862 73.1706 80.6794 72.554 80.6794 71.8053C80.6794 71.0478 81.295 70.44 82.0424 70.44C82.7987 70.44 83.4054 71.0566 83.4054 71.8053C83.4054 72.554 82.7899 73.1706 82.0424 73.1706Z" fill="#CED7D4"/>
</svg>
