<svg width="120" height="94" viewBox="0 0 120 94" fill="none" xmlns="http://www.w3.org/2000/svg">
<path opacity="0.4" d="M112.647 53.2997C112.645 31.5316 99.4178 11.952 79.2343 3.84063C59.0508 -4.27074 35.9672 0.716157 20.9238 16.4378C5.88053 32.1594 1.90063 55.4564 10.8704 75.2871H107.907C111.038 68.3808 112.654 60.8835 112.647 53.2997Z" fill="#EC979B"/>
<ellipse cx="59.9171" cy="46" rx="18.9733" ry="19" fill="#FEEAEE"/>
<ellipse cx="20.9719" cy="46" rx="5.99157" ry="6" fill="#FEEAEE"/>
<ellipse cx="97.3644" cy="46.5" rx="6.49087" ry="6.5" fill="#FEEAEE"/>
<path fill-rule="evenodd" clip-rule="evenodd" d="M0.998413 75C0.998413 74.3724 1.50718 73.8636 2.13478 73.8636H5.46343C6.09102 73.8636 6.59979 74.3724 6.59979 75C6.59979 75.6276 6.09102 76.1364 5.46343 76.1364H2.13478C1.50718 76.1364 0.998413 75.6276 0.998413 75ZM6.88344 75C6.88344 74.3724 7.39221 73.8636 8.01981 73.8636H111.874C112.501 73.8636 113.01 74.3724 113.01 75C113.01 75.6276 112.501 76.1364 111.874 76.1364H8.01981C7.39221 76.1364 6.88344 75.6276 6.88344 75ZM114.537 73.8636C113.909 73.8636 113.4 74.3724 113.4 75C113.4 75.6276 113.909 76.1364 114.537 76.1364H117.865C118.493 76.1364 119.002 75.6276 119.002 75C119.002 74.3724 118.493 73.8636 117.865 73.8636H114.537Z" fill="#E12D39"/>
<path opacity="0.5" d="M59.0546 94C77.2544 94 92.0083 92.6569 92.0083 91C92.0083 89.3431 77.2544 88 59.0546 88C40.8549 88 26.101 89.3431 26.101 91C26.101 92.6569 40.8549 94 59.0546 94Z" fill="#EBEFEE"/>
<circle cx="60" cy="47" r="18" fill="#FEEAEE"/>
<circle cx="20.5" cy="44.5" r="6.5" fill="#FEEAEE"/>
<circle cx="97.5" cy="45.5" r="6.5" fill="#FEEAEE"/>
<path d="M97.5641 37.8C93.8693 37.8 90.6738 40.3 89.6752 43.9L89.4755 44.6H79.4896L79.3897 43.7C78.0915 33.6 69.6035 26 59.4178 26C49.2321 26 40.6442 33.6 39.5458 43.7L39.4459 44.6H29.46L29.2602 43.9C28.2616 40.3 25.0661 37.8 21.3713 37.8C16.7778 37.8 13.083 41.5 13.083 46.1C13.083 50.7 16.7778 54.4 21.3713 54.4C25.0661 54.4 28.2616 51.9 29.2602 48.3L29.46 47.6H39.4459L39.5458 48.5C40.7441 58.6 49.2321 66.2 59.4178 66.2C69.6035 66.2 78.1914 58.6 79.2898 48.5L79.3897 47.6H89.3757L89.5754 48.3C90.574 51.9 93.7695 54.4 97.4643 54.4C102.058 54.4 105.753 50.7 105.753 46.1C105.753 41.5 102.158 37.8 97.5641 37.8ZM21.2715 51.4C18.2757 51.4 15.9789 49.1 15.9789 46.1C15.9789 43.1 18.2757 40.8 21.2715 40.8C24.2673 40.8 26.564 43.1 26.564 46.1C26.564 49 24.1674 51.4 21.2715 51.4ZM59.4178 63.2C50.031 63.2 42.3418 55.5 42.3418 46.1C42.3418 36.7 50.031 29 59.4178 29C68.8046 29 76.4938 36.7 76.4938 46.1C76.4938 55.5 68.8046 63.2 59.4178 63.2ZM97.5641 51.4C94.5683 51.4 92.2716 49.1 92.2716 46.1C92.2716 43.1 94.5683 40.8 97.5641 40.8C100.56 40.8 102.857 43.1 102.857 46.1C102.857 49.1 100.56 51.4 97.5641 51.4Z" fill="#E12D39"/>
<path d="M67.107 38.5C66.3081 37.7 65.1098 37.7 64.3109 38.5L59.4178 43.4L54.5247 38.5C53.7258 37.7 52.5275 37.7 51.7286 38.5C50.9297 39.3 50.9297 40.5 51.7286 41.3L56.6217 46.2L51.8285 51C51.0296 51.8 51.0296 53 51.8285 53.8C52.2279 54.2 52.6273 54.4 53.1266 54.4C53.5261 54.4 54.1252 54.3 54.4248 53.9L59.3179 49L64.2111 53.9C64.6105 54.3 65.0099 54.5 65.5092 54.5C65.9087 54.5 66.5078 54.4 66.8074 54C67.6063 53.1 67.6063 52 66.8074 51.2L62.2139 46.3L67.0071 41.5C67.4066 41.1 67.6063 40.6 67.6063 40C67.6063 39.3 67.4066 38.8 67.107 38.5Z" fill="#E12D39"/>
<path d="M62.9129 46.1L67.2069 50.6C68.2055 51.6 68.2055 53.1 67.2069 54.1C66.8074 54.6 66.1084 54.8 65.5092 54.8C64.9101 54.8 64.3109 54.6 63.8116 54.1L59.318 49.6L54.8243 54.1C54.4248 54.6 53.7258 54.8 53.1267 54.8C52.5275 54.8 51.9284 54.6 51.4291 54.1C50.4305 53.1 50.4305 51.6 51.4291 50.6L55.9227 46.1L51.4291 41.6C50.4305 40.6 50.4305 39.1 51.4291 38.1C52.4277 37.1 53.9255 37.1 54.9241 38.1L59.4178 42.6L63.9115 38.1C64.9101 37.1 66.408 37.1 67.4066 38.1C68.4052 39 68.4052 40.6 67.4066 41.6L62.9129 46.1Z" fill="#E12D39"/>
</svg>
