<svg width="120" height="94" viewBox="0 0 120 94" fill="none" xmlns="http://www.w3.org/2000/svg">
<path d="M112.647 53.489C112.645 31.8222 99.4178 12.3337 79.2343 4.26002C59.0508 -3.81362 35.9671 1.15008 20.9238 16.7986C5.88051 32.4471 1.90062 55.6357 10.8704 75.3742H107.907C111.038 68.5 112.654 61.0375 112.647 53.489Z" fill="#EBEFEE"/>
<path fill-rule="evenodd" clip-rule="evenodd" d="M0.998402 75.0884C0.998402 74.4608 1.50717 73.952 2.13477 73.952H5.46341C6.09101 73.952 6.59978 74.4608 6.59978 75.0884C6.59978 75.716 6.09101 76.2248 5.46341 76.2248H2.13477C1.50717 76.2248 0.998402 75.716 0.998402 75.0884ZM6.88343 75.0884C6.88343 74.4608 7.3922 73.952 8.01979 73.952H111.874C112.501 73.952 113.01 74.4608 113.01 75.0884C113.01 75.716 112.501 76.2248 111.874 76.2248H8.01979C7.3922 76.2248 6.88343 75.716 6.88343 75.0884ZM114.537 73.952C113.909 73.952 113.4 74.4608 113.4 75.0884C113.4 75.716 113.909 76.2248 114.537 76.2248H117.865C118.493 76.2248 119.002 75.716 119.002 75.0884C119.002 74.4608 118.493 73.952 117.865 73.952H114.537Z" fill="#CED7D4"/>
<path d="M59.0547 94C77.2544 94 92.0083 92.6631 92.0083 91.014C92.0083 89.3649 77.2544 88.028 59.0547 88.028C40.8549 88.028 26.101 89.3649 26.101 91.014C26.101 92.6631 40.8549 94 59.0547 94Z" fill="#EBEFEE"/>
<path fill-rule="evenodd" clip-rule="evenodd" d="M23.1052 27.3221L36.087 35.7825L60.0533 20.8523L49.0687 12.8895L23.1052 27.3221ZM47.0715 56.6849L36.087 50.7128V68.1314L60.5525 82.5639L86.0167 68.1314V50.7128L74.264 55.9192L97.0013 41.7546L86.8936 34.4275L97.5005 27.8198L73.5343 13.8849L61.0518 19.3593L84.5102 34.6293L60.0533 48.2244L72.8329 56.5532L72.5357 56.6849L60.5525 50.7128L55.0219 53.1629L60.5525 49.7174L36.5863 35.7825L24.1038 41.257L47.5079 56.4915L47.0715 56.6849Z" fill="white"/>
<path d="M85.781 36.9169C85.5808 36.9169 85.1803 36.9169 84.9801 36.7167L60.5525 22.704L36.125 36.7167C35.3241 37.1171 34.323 36.9169 33.9225 36.1162C33.522 35.3154 33.7223 34.3145 34.5232 33.9142L59.7516 19.3009C60.1521 19.1007 60.953 19.1007 61.3534 19.3009L86.5819 33.9142C87.3828 34.3145 87.583 35.3154 87.1826 36.1162C86.7821 36.5165 86.3817 36.9169 85.781 36.9169Z" fill="#CED7D4"/>
<path d="M60.5525 83.5593C60.3523 83.5593 59.9519 83.5593 59.7516 83.3591L34.5232 68.946C34.1227 68.7458 33.7223 68.1453 33.7223 67.5447V49.7285C33.7223 48.9278 34.5232 48.1271 35.3241 48.1271C36.125 48.1271 36.9259 48.9278 36.9259 49.7285V66.5438L60.5525 80.1562L84.1792 66.5438V49.7285C84.1792 48.9278 84.9801 48.1271 85.781 48.1271C86.5819 48.1271 87.3828 48.9278 87.3828 49.7285V67.5447C87.3828 68.1453 86.9823 68.7458 86.5819 68.946L61.3534 83.5593C61.1532 83.5593 60.7528 83.5593 60.5525 83.5593Z" fill="#CED7D4"/>
<path d="M60.5525 83.5593C59.7516 83.5593 58.9507 82.7585 58.9507 81.9578V50.7294L34.5232 36.7167C33.7223 36.3164 33.522 35.3154 33.9225 34.5147C34.323 33.714 35.3241 33.5138 36.125 33.9142L61.3534 48.5274C61.7539 48.7276 62.1543 49.3282 62.1543 49.9287V82.158C62.1543 82.9587 61.3534 83.5593 60.5525 83.5593Z" fill="#CED7D4"/>
<path d="M60.5525 51.33C59.9519 51.33 59.5514 51.1298 59.151 50.5292C58.7505 49.7285 58.9507 48.7276 59.7516 48.3273L84.9801 33.714C85.781 33.3136 86.7821 33.5138 87.1826 34.3145C87.583 35.1152 87.3828 36.1162 86.5819 36.5165L61.3534 51.1298C61.1532 51.33 60.7528 51.33 60.5525 51.33Z" fill="#CED7D4"/>
<path d="M85.781 36.9179C85.1803 36.9179 84.7799 36.7177 84.3794 36.1172C83.979 35.3164 84.1792 34.3155 84.9801 33.9152L95.1916 28.1099L73.1668 15.4984L61.3534 22.3046C60.5525 22.705 59.5514 22.5048 59.151 21.7041C58.7505 20.9033 58.9507 19.9024 59.7516 19.5021L72.3659 12.2955C72.7663 12.0953 73.5672 12.0953 73.9677 12.2955L99.1961 26.9088C99.5966 27.109 99.997 27.7095 99.997 28.3101C99.997 28.9106 99.5966 29.5112 99.1961 29.7113L86.5819 36.5175C86.3817 36.7177 85.9812 36.9179 85.781 36.9179Z" fill="#CED7D4"/>
<path d="M35.3241 36.9169C35.1239 36.9169 34.7234 36.9169 34.5232 36.7167L21.909 29.5102C21.5085 29.31 21.1081 28.7094 21.1081 28.1089C21.1081 27.5083 21.5085 26.9078 21.909 26.7076L47.1374 12.0944C47.5379 11.8942 48.3388 11.8942 48.7392 12.0944L61.3535 19.3009C62.1544 19.7013 62.3546 20.7022 61.9541 21.5029C61.5537 22.3036 60.5526 22.5038 59.7516 22.1034L47.9383 15.2973L25.9135 27.9087L36.125 33.714C36.9259 34.1143 37.1261 35.1153 36.7257 35.916C36.5254 36.5165 35.9248 36.9169 35.3241 36.9169Z" fill="#CED7D4"/>
<path d="M47.9383 58.5365C47.7381 58.5365 47.3376 58.5365 47.1374 58.3363L21.909 43.7231C21.5085 43.5229 21.1081 42.9223 21.1081 42.3218C21.1081 41.7212 21.5085 41.1207 21.909 40.9205L34.5232 33.714C35.3241 33.3136 36.3252 33.5138 36.7257 34.3145C37.1261 35.1152 36.9259 36.1162 36.125 36.5165L25.9135 42.3218L47.9383 54.9333L59.7516 48.1271C60.5526 47.7267 61.5537 47.9269 61.9541 48.7276C62.3546 49.5283 62.1544 50.5292 61.3535 50.9296L48.7392 58.1362C48.539 58.5365 48.1385 58.5365 47.9383 58.5365Z" fill="#CED7D4"/>
<path d="M73.1668 58.5365C72.9665 58.5365 72.5661 58.5365 72.3659 58.3364L59.7516 51.1298C58.9507 50.7294 58.7505 49.7285 59.151 48.9278C59.5514 48.1271 60.5525 47.9269 61.3534 48.3273L73.1668 55.1334L95.1916 42.522L84.9801 36.7167C84.1792 36.3164 83.979 35.3154 84.3794 34.5147C84.7799 33.714 85.781 33.5138 86.5819 33.9142L99.1961 41.1207C99.5966 41.3209 99.997 41.9214 99.997 42.522C99.997 43.1225 99.5966 43.7231 99.1961 43.9233L73.9677 58.5365C73.7675 58.5365 73.367 58.5365 73.1668 58.5365Z" fill="#CED7D4"/>
</svg>
