<svg width="294" height="235" viewBox="0 0 294 235" fill="none" xmlns="http://www.w3.org/2000/svg">
<g clip-path="url(#clip0_1239:9468)">
<path d="M278.395 137.232C278.385 118.682 273.945 100.368 265.399 83.6307C256.853 66.8933 244.418 52.1554 229.003 40.4949C213.588 28.8344 195.583 20.5462 176.305 16.2366C157.028 11.927 136.964 11.705 117.583 15.5866C98.2015 19.4683 79.9922 27.3556 64.2869 38.6716C48.5817 49.9876 35.7776 64.4462 26.8113 80.9897C17.8449 97.5333 12.9429 115.743 12.4639 134.288C11.985 152.833 15.9412 171.244 24.0431 188.174H266.561C274.37 172.186 278.406 154.811 278.395 137.232Z" fill="#F3F3F3"/>
<path fill-rule="evenodd" clip-rule="evenodd" d="M0.550418 186.575C0.549609 186.154 0.724357 185.751 1.03673 185.452C1.19158 185.302 1.37652 185.184 1.58068 185.103C1.78484 185.021 2.00409 184.98 2.22555 184.98H10.5203C10.7418 184.979 10.9613 185.02 11.1655 185.102C11.3698 185.183 11.5547 185.302 11.7091 185.452C12.0215 185.751 12.1962 186.154 12.1954 186.575C12.1919 186.993 12.0142 187.394 11.7008 187.689C11.3874 187.985 10.9634 188.153 10.5203 188.156H2.22555C1.78237 188.153 1.35837 187.985 1.04498 187.689C0.731588 187.394 0.553949 186.993 0.550418 186.575ZM15.235 186.575C15.2392 186.153 15.4187 185.75 15.7348 185.452C15.8892 185.302 16.0741 185.183 16.2783 185.102C16.4826 185.02 16.7021 184.979 16.9236 184.98H276.558C277.005 184.983 277.432 185.152 277.748 185.451C278.064 185.749 278.243 186.153 278.247 186.575C278.248 186.782 278.204 186.987 278.118 187.178C278.033 187.369 277.906 187.541 277.747 187.684C277.592 187.835 277.408 187.954 277.203 188.035C276.999 188.116 276.78 188.157 276.558 188.156H16.9236C16.7021 188.157 16.4826 188.116 16.2783 188.035C16.0741 187.954 15.8892 187.835 15.7348 187.684C15.5781 187.54 15.4533 187.367 15.3675 187.177C15.2817 186.986 15.2367 186.782 15.235 186.575ZM283.124 184.98C282.677 184.983 282.249 185.152 281.933 185.451C281.617 185.749 281.438 186.153 281.435 186.575C281.433 186.782 281.477 186.987 281.563 187.178C281.649 187.369 281.776 187.541 281.935 187.684C282.089 187.835 282.274 187.954 282.478 188.035C282.683 188.116 282.902 188.157 283.124 188.156H291.418C291.861 188.153 292.285 187.985 292.599 187.689C292.912 187.394 293.09 186.993 293.093 186.575C293.094 186.154 292.919 185.751 292.607 185.452C292.453 185.302 292.268 185.183 292.064 185.102C291.859 185.02 291.64 184.979 291.418 184.98H283.124Z" fill="#888888"/>
<path d="M144.465 233.393C189.964 233.393 226.79 230.229 226.79 226.338C226.79 222.447 189.937 219.309 144.465 219.309C98.9924 219.309 62.1392 222.447 62.1392 226.338C62.1392 230.229 98.9924 233.393 144.465 233.393Z" fill="#F3F3F3"/>
<path d="M149.016 71.788H141.637V87.2776H149.016V71.788Z" fill="white"/>
<path d="M149.016 92.1095H141.637C139.595 92.1095 137.941 89.9423 137.941 87.2778V71.7882C137.941 69.1109 139.595 66.9436 141.637 66.9436H149.016C151.058 66.9436 152.712 69.1109 152.712 71.7882V87.2778C152.712 89.9423 151.058 92.1095 149.016 92.1095Z" fill="#888888"/>
<path d="M121.476 187.087V106.362L170.198 107V130.292H193.809V97.9099C193.398 94.2587 191.854 90.8217 189.389 88.0679C186.316 84.7541 182.109 82.6788 177.577 82.2417H117.728C112.821 81.9724 107.977 83.4361 104.065 86.3704C100.152 89.3047 97.4275 93.5177 96.3784 98.2541V187.087H121.476Z" fill="white"/>
<path d="M121.476 190.733H96.3786C95.8938 190.733 95.4137 190.639 94.966 190.455C94.5183 190.272 94.1117 190.003 93.7695 189.664C93.4274 189.326 93.1563 188.924 92.9719 188.481C92.7876 188.039 92.6935 187.565 92.6952 187.087V98.2031C92.6954 97.942 92.7214 97.6816 92.7728 97.4255C93.9925 92.0047 97.063 87.1619 101.47 83.7079C106.128 80.132 111.921 78.3023 117.819 78.5446H177.577H177.926C182.899 78.9683 187.567 81.0831 191.134 84.5271C194.701 87.9711 196.944 92.5305 197.48 97.4255C197.48 97.553 197.48 97.6931 197.48 97.8334V130.215C197.48 131.182 197.09 132.109 196.397 132.793C195.704 133.477 194.764 133.861 193.783 133.861H170.172C169.192 133.861 168.252 133.477 167.558 132.793C166.865 132.109 166.476 131.182 166.476 130.215V110.518L125.121 109.97V187.01C125.131 187.491 125.044 187.97 124.867 188.417C124.689 188.865 124.423 189.274 124.084 189.62C123.745 189.966 123.34 190.243 122.893 190.434C122.445 190.625 121.964 190.726 121.476 190.733ZM100.075 183.453H117.78V106.362C117.792 105.403 118.186 104.487 118.878 103.813C119.576 103.155 120.498 102.777 121.463 102.754L170.172 103.392C171.143 103.405 172.07 103.795 172.752 104.478C173.434 105.16 173.817 106.08 173.816 107.038V126.696H190.061V98.1649C189.697 95.3291 188.482 92.6654 186.572 90.5157C184.156 87.923 180.868 86.2832 177.319 85.9006H117.47C113.509 85.6811 109.594 86.8356 106.406 89.1641C103.217 91.4925 100.954 94.848 100.01 98.6493L100.075 183.453Z" fill="#888888"/>
<path d="M145.333 69.7105C155.982 69.7105 164.615 61.1945 164.615 50.6895C164.615 40.1845 155.982 31.6685 145.333 31.6685C134.683 31.6685 126.051 40.1845 126.051 50.6895C126.051 61.1945 134.683 69.7105 145.333 69.7105Z" fill="white"/>
<path d="M145.32 72.1449C141.018 72.1449 136.813 70.8864 133.236 68.5288C129.659 66.1712 126.872 62.8202 125.225 58.8996C123.579 54.979 123.148 50.665 123.988 46.503C124.827 42.3409 126.898 38.5177 129.94 35.517C132.982 32.5164 136.858 30.4729 141.077 29.6451C145.296 28.8172 149.669 29.2421 153.644 30.8661C157.618 32.49 161.015 35.2401 163.405 38.7685C165.795 42.2969 167.07 46.4452 167.07 50.6888C167.064 56.3772 164.77 61.8307 160.692 65.853C156.615 69.8753 151.087 72.1381 145.32 72.1449ZM145.32 34.1155C141.997 34.1155 138.749 35.0875 135.986 36.9086C133.223 38.7297 131.07 41.3181 129.798 44.3465C128.527 47.3749 128.194 50.7071 128.842 53.922C129.491 57.1369 131.091 60.09 133.44 62.4078C135.79 64.7256 138.783 66.3041 142.042 66.9436C145.301 67.5831 148.68 67.2549 151.749 66.0006C154.819 64.7462 157.443 62.6218 159.289 59.8964C161.135 57.1709 162.121 53.9667 162.121 50.6888C162.121 46.2933 160.351 42.0778 157.2 38.9697C154.049 35.8616 149.776 34.1155 145.32 34.1155Z" fill="#888888"/>
<path d="M145.333 55.1257C144.823 55.1229 144.316 55.0368 143.834 54.8708C142.711 54.4807 141.79 53.6671 141.274 52.6083C140.758 51.5496 140.689 50.3321 141.081 49.2231C141.48 48.114 142.307 47.2057 143.382 46.6968C144.458 46.1879 145.693 46.1198 146.819 46.5076C147.943 46.8976 148.864 47.7113 149.38 48.77C149.896 49.8288 149.965 51.0462 149.572 52.1553C149.258 53.0184 148.683 53.7658 147.925 54.2968C147.167 54.8279 146.263 55.1171 145.333 55.1257ZM145.23 50.4852C145.175 50.5126 145.133 50.5593 145.112 50.6159C145.09 50.6725 145.091 50.7351 145.114 50.7913C145.145 50.8415 145.193 50.8799 145.249 50.9007C145.305 50.9214 145.366 50.9233 145.424 50.906C145.48 50.8806 145.524 50.834 145.546 50.7766C145.568 50.7193 145.566 50.6558 145.54 50.6C145.514 50.5442 145.467 50.5008 145.409 50.4792C145.351 50.4577 145.286 50.4598 145.23 50.4852Z" fill="#888888"/>
<path d="M149.469 46.2786L145.811 48.9813L147 49.7972L149.469 46.2786Z" fill="#888888"/>
<path d="M147.349 51.6578L143.498 49.0188L155.349 40.235L147.349 51.6578Z" fill="#888888"/>
<path d="M133.701 183.708H83.5967V202.003H133.701V183.708Z" fill="white"/>
<path d="M133.702 205.292H83.5976C82.7201 205.292 81.8786 204.948 81.2582 204.336C80.6377 203.724 80.2891 202.894 80.2891 202.028V183.734C80.2891 182.868 80.6377 182.038 81.2582 181.426C81.8786 180.814 82.7201 180.47 83.5976 180.47H133.702C134.58 180.47 135.421 180.814 136.042 181.426C136.662 182.038 137.011 182.868 137.011 183.734V202.028C137.011 202.894 136.662 203.724 136.042 204.336C135.421 204.948 134.58 205.292 133.702 205.292ZM86.893 198.765H130.394V186.998H86.893V198.765Z" fill="#888888"/>
<path d="M206.733 124.835H156.628V143.13H206.733V124.835Z" fill="white"/>
<path d="M206.733 146.406H156.628C155.751 146.406 154.909 146.062 154.289 145.45C153.668 144.838 153.32 144.008 153.32 143.143V124.848C153.32 123.983 153.668 123.153 154.289 122.54C154.909 121.928 155.751 121.584 156.628 121.584H206.733C207.168 121.583 207.599 121.666 208.001 121.83C208.403 121.993 208.768 122.233 209.076 122.537C209.383 122.84 209.627 123.201 209.793 123.597C209.958 123.994 210.043 124.419 210.041 124.848V143.143C210.041 144.008 209.693 144.838 209.072 145.45C208.452 146.062 207.61 146.406 206.733 146.406ZM159.936 139.879H203.437V128.099H159.936V139.879Z" fill="#888888"/>
</g>
<defs>
<clipPath id="clip0_1239:9468">
<rect width="292.57" height="233.97" fill="white" transform="translate(0.550415 0.277344)"/>
</clipPath>
</defs>
</svg>
