<svg width="120" height="94" viewBox="0 0 120 94" fill="none" xmlns="http://www.w3.org/2000/svg">
<path d="M112.647 53.2997C112.645 31.5316 99.4178 11.952 79.2343 3.84063C59.0508 -4.27074 35.9671 0.716157 20.9238 16.4378C5.88051 32.1594 1.90062 55.4564 10.8704 75.2871H107.907C111.038 68.3808 112.654 60.8835 112.647 53.2997Z" fill="#C6F7E2"/>
<path fill-rule="evenodd" clip-rule="evenodd" d="M0.998398 75C0.998398 74.3724 1.50717 73.8636 2.13476 73.8636H5.46341C6.09101 73.8636 6.59977 74.3724 6.59977 75C6.59977 75.6276 6.09101 76.1364 5.46341 76.1364H2.13476C1.50717 76.1364 0.998398 75.6276 0.998398 75ZM6.88343 75C6.88343 74.3724 7.39219 73.8636 8.01979 73.8636H111.874C112.501 73.8636 113.01 74.3724 113.01 75C113.01 75.6276 112.501 76.1364 111.874 76.1364H8.01979C7.39219 76.1364 6.88343 75.6276 6.88343 75ZM114.537 73.8636C113.909 73.8636 113.4 74.3724 113.4 75C113.4 75.6276 113.909 76.1364 114.537 76.1364H117.865C118.493 76.1364 119.002 75.6276 119.002 75C119.002 74.3724 118.493 73.8636 117.865 73.8636H114.537Z" fill="#02A783"/>
<path d="M59.0547 94C77.2544 94 92.0083 92.6569 92.0083 91C92.0083 89.3431 77.2544 88 59.0547 88C40.8549 88 26.101 89.3431 26.101 91C26.101 92.6569 40.8549 94 59.0547 94Z" fill="#EBEFEE"/>
<path d="M69.9037 62V71.5L66.4087 73.5H60.9164L58.9192 79L57.4213 81.5H53.4269L51.4297 77L52.4283 62L46.9361 59.5L39.4466 62L31.4578 59.5V54L33.9543 52.5L41.4438 56L46.9361 52.5L52.4283 55.5V49L33.9543 28.5L35.9515 25H39.4466L53.4269 38.5L54.4255 35V28.5L58.9192 25H63.4129L67.4072 29.5V38L82.3862 25L86.3806 28.5L68.9051 47.5L69.9037 54L73.3988 52.5L79.8897 55L87.8784 52.5L89.8756 60.5L84.8827 59.5L78.3918 62L73.8981 59.5L69.9037 62Z" fill="#EFFCF6"/>
<path d="M60.405 38.7443C64.4708 38.7443 67.7668 35.4437 67.7668 31.3721C67.7668 27.3006 64.4708 24 60.405 24C56.3392 24 53.0432 27.3006 53.0432 31.3721C53.0432 35.4437 56.3392 38.7443 60.405 38.7443Z" stroke="#02A783" stroke-width="3" stroke-miterlimit="10" stroke-linecap="round" stroke-linejoin="round"/>
<path d="M30.9578 55.3145C30.9578 53.4715 32.4302 51.9971 34.2706 51.9971C36.1111 51.9971 39.0558 55.3145 40.7735 55.3145C42.614 55.3145 45.5587 51.9971 47.2765 51.9971C49.1169 51.9971 52.0616 55.3145 53.7794 55.3145C55.6198 55.3145 58.5645 51.9971 60.2823 51.9971C62.1227 51.9971 65.0674 55.3145 66.7852 55.3145C68.6256 55.3145 71.5703 51.9971 73.2881 51.9971C75.1285 51.9971 78.0732 55.3145 79.791 55.3145C81.6314 55.3145 84.5761 51.9971 86.2939 51.9971C88.1343 51.9971 89.6067 53.4715 89.6067 55.3145V59.8607C89.6067 60.3522 88.9932 60.7208 88.6251 60.3522C88.0116 59.7378 87.2755 59.4921 86.4166 59.4921C84.5762 59.4921 81.6314 62.8095 79.9137 62.8095C78.0732 62.8095 75.1285 59.4921 73.4108 59.4921C71.5703 59.4921 68.6256 62.8095 66.9079 62.8095C65.0674 62.8095 62.1227 59.4921 60.405 59.4921C58.5645 59.4921 55.6198 62.8095 53.9021 62.8095C52.0616 62.8095 49.1169 59.4921 47.3992 59.4921C45.5587 59.4921 42.614 62.8095 40.8962 62.8095C39.0558 62.8095 36.1111 59.4921 34.3933 59.4921C33.5345 59.4921 32.6756 59.8607 32.1848 60.3522C31.5713 60.7208 30.9578 60.475 30.9578 59.8607V55.3145Z" stroke="#02A783" stroke-width="3" stroke-miterlimit="10" stroke-linecap="round" stroke-linejoin="round"/>
<path d="M60.405 59.4921C58.5645 59.4921 55.6198 62.8096 53.902 62.8096C53.2886 62.8096 52.4297 62.441 51.5708 61.8266V77.6767C51.5708 80.1341 53.534 82.1 55.9879 82.1C58.4418 82.1 60.405 80.1341 60.405 77.6767V70.3046V61.9495V70.3046C60.405 72.762 62.3681 74.7279 64.822 74.7279C67.2759 74.7279 69.2391 72.762 69.2391 70.3046V61.8266C68.3802 62.3181 67.644 62.8096 66.9079 62.8096C65.1901 62.6867 62.2454 59.4921 60.405 59.4921Z" stroke="#02A783" stroke-width="3" stroke-miterlimit="10" stroke-linecap="round" stroke-linejoin="round"/>
<path d="M60.405 52.12C62.2454 52.12 65.1901 55.4374 66.9079 55.4374C67.5214 55.4374 68.3802 55.0688 69.2391 54.4545V48.1881V48.0653V48.1881L85.0669 30.8636C86.5393 29.3892 86.5393 27.0547 85.0669 25.7031C83.5946 24.2287 81.2634 24.2287 79.791 25.7031L66.2944 39.2187H54.5155L41.0189 25.7031C39.5466 24.2287 37.2154 24.2287 35.743 25.7031C34.2706 27.1775 34.2706 29.5121 35.743 30.8636L51.5708 48.1881V48.0653V48.1881V54.4545C52.4297 54.9459 53.1659 55.4374 53.9021 55.4374C55.6198 55.3145 58.5645 52.12 60.405 52.12Z" stroke="#02A783" stroke-width="3" stroke-miterlimit="10" stroke-linecap="round" stroke-linejoin="round"/>
</svg>
