<svg width="294" height="235" viewBox="0 0 294 235" fill="none" xmlns="http://www.w3.org/2000/svg">
<g clip-path="url(#clip0_1239:9449)">
<path d="M278.825 137.232C278.815 118.682 274.375 100.368 265.829 83.6307C257.283 66.8933 244.848 52.1554 229.433 40.4949C214.018 28.8344 196.013 20.5462 176.735 16.2366C157.458 11.927 137.394 11.705 118.013 15.5866C98.6315 19.4683 80.4222 27.3556 64.7169 38.6716C49.0117 49.9876 36.2076 64.4462 27.2413 80.9897C18.2749 97.5333 13.3729 115.743 12.8939 134.288C12.415 152.833 16.3712 171.244 24.4731 188.174H266.991C274.8 172.186 278.836 154.811 278.825 137.232Z" fill="#F3F3F3"/>
<path fill-rule="evenodd" clip-rule="evenodd" d="M0.980411 186.575C0.979601 186.154 1.15435 185.751 1.46672 185.452C1.62157 185.302 1.80652 185.184 2.01067 185.103C2.21483 185.021 2.43408 184.98 2.65555 184.98H10.9502C11.1718 184.979 11.3913 185.02 11.5955 185.102C11.7998 185.183 11.9847 185.302 12.1391 185.452C12.4514 185.751 12.6262 186.154 12.6254 186.575C12.6219 186.993 12.4442 187.394 12.1308 187.689C11.8174 187.985 11.3934 188.153 10.9502 188.156H2.65555C2.21236 188.153 1.78836 187.985 1.47497 187.689C1.16158 187.394 0.983942 186.993 0.980411 186.575ZM15.665 186.575C15.6692 186.153 15.8487 185.75 16.1648 185.452C16.3192 185.302 16.5041 185.183 16.7083 185.102C16.9126 185.02 17.132 184.979 17.3536 184.98H276.988C277.435 184.983 277.862 185.152 278.178 185.451C278.494 185.749 278.673 186.153 278.677 186.575C278.678 186.782 278.634 186.987 278.548 187.178C278.463 187.369 278.336 187.541 278.177 187.684C278.022 187.835 277.838 187.954 277.633 188.035C277.429 188.116 277.21 188.157 276.988 188.156H17.3536C17.132 188.157 16.9126 188.116 16.7083 188.035C16.5041 187.954 16.3192 187.835 16.1648 187.684C16.0081 187.54 15.8833 187.367 15.7975 187.177C15.7117 186.986 15.6666 186.782 15.665 186.575ZM283.554 184.98C283.107 184.983 282.679 185.152 282.363 185.451C282.047 185.749 281.868 186.153 281.865 186.575C281.863 186.782 281.907 186.987 281.993 187.178C282.079 187.369 282.206 187.541 282.365 187.684C282.519 187.835 282.704 187.954 282.908 188.035C283.113 188.116 283.332 188.157 283.554 188.156H291.848C292.291 188.153 292.715 187.985 293.029 187.689C293.342 187.394 293.52 186.993 293.523 186.575C293.524 186.154 293.349 185.751 293.037 185.452C292.883 185.302 292.698 185.183 292.494 185.102C292.289 185.02 292.07 184.979 291.848 184.98H283.554Z" fill="#888888"/>
<path d="M144.895 233.393C190.394 233.393 227.22 230.229 227.22 226.338C227.22 222.447 190.367 219.309 144.895 219.309C99.4224 219.309 62.5692 222.447 62.5692 226.338C62.5692 230.229 99.4224 233.393 144.895 233.393Z" fill="#F3F3F3"/>
<path d="M145.219 174.667L146.57 184.771C146.11 193.994 135.087 201.253 121.942 200.985C108.798 200.717 98.5173 193.025 98.9766 183.801L99.7331 175.139L145.219 174.667Z" fill="white" stroke="#888888" stroke-width="5.40862"/>
<path d="M121.632 191.494C115.818 191.474 110.166 189.685 105.515 186.391C101.462 183.393 99.3682 179.476 99.5709 175.458C99.7735 171.439 102.273 167.625 106.596 164.792C111.504 161.727 117.305 160.188 123.185 160.391C128.999 160.41 134.651 162.2 139.302 165.494C143.354 168.505 145.448 172.409 145.246 176.44C145.043 180.471 142.544 184.273 138.207 187.105C133.302 190.166 127.506 191.7 121.632 191.494Z" fill="white" stroke="#888888" stroke-width="5.40862"/>
<path d="M106.028 62.2363V176.134C107.955 177.713 110.067 179.079 112.324 180.204C115.418 181.922 118.921 182.879 122.51 182.985C126.093 182.847 129.588 181.893 132.696 180.204C134.986 179.148 137.15 177.865 139.153 176.376V62.2363C136.533 64.5639 133.52 66.4612 130.237 67.8496C127.896 69.0714 125.265 69.7124 122.591 69.7124C119.916 69.7124 117.285 69.0714 114.945 67.8496C111.662 66.4612 108.648 64.5639 106.028 62.2363Z" fill="white" stroke="#888888" stroke-width="5.53679" stroke-miterlimit="10"/>
<path d="M99.4088 49.1213V63.2948C101.751 66.4684 104.73 69.1773 108.176 71.2682C112.415 73.7666 117.357 74.99 122.348 74.7765C127.192 74.9332 131.974 73.7109 136.073 71.2682C139.818 68.9478 142.965 65.8661 145.286 62.2487V47.1567" fill="white"/>
<path d="M99.4088 49.1213V63.2948C101.751 66.4684 104.73 69.1773 108.176 71.2682C112.415 73.7666 117.357 74.99 122.348 74.7765C127.192 74.9332 131.974 73.7109 136.073 71.2682C139.818 68.9478 142.965 65.8661 145.286 62.2487V47.1567" stroke="#888888" stroke-width="5.42144" stroke-miterlimit="10"/>
<path d="M122.348 62.2363C135.591 62.2363 146.326 55.8107 146.326 47.8843C146.326 39.9578 135.591 33.5322 122.348 33.5322C109.104 33.5322 98.3686 39.9578 98.3686 47.8843C98.3686 55.8107 109.104 62.2363 122.348 62.2363Z" fill="white" stroke="#888888" stroke-width="5.42144" stroke-miterlimit="10"/>
<path d="M151.892 147.57L125.819 133.677C124.516 131.488 124.008 128.956 124.374 126.469C124.73 124.256 125.731 122.18 127.265 120.473C128.679 118.494 130.702 116.971 133.06 116.11C134.678 115.543 136.406 115.312 138.126 115.434L164.929 129.799" fill="white"/>
<path d="M151.892 147.57L125.819 133.677C124.516 131.488 124.008 128.956 124.374 126.469C124.73 124.256 125.731 122.18 127.265 120.473C128.679 118.494 130.702 116.971 133.06 116.11C134.678 115.543 136.406 115.312 138.126 115.434L164.929 129.799" stroke="#888888" stroke-width="5.04976" stroke-miterlimit="10"/>
<path d="M163.645 142.287C167.311 137.478 167.971 132.008 165.119 130.069C162.267 128.13 156.983 130.457 153.317 135.266C149.651 140.075 148.991 145.545 151.843 147.484C154.695 149.423 159.979 147.096 163.645 142.287Z" fill="white" stroke="#888888" stroke-width="5.04976" stroke-miterlimit="10"/>
<path d="M180.464 169.921C171.211 170.253 163.186 157.827 162.578 142.174C161.97 126.521 168.968 113.559 178.235 113.227C187.503 112.896 195.514 125.334 196.135 140.987C196.757 156.641 189.732 169.602 180.464 169.921Z" fill="white" stroke="#888888" stroke-width="5.04976" stroke-miterlimit="10"/>
<path d="M167.563 171.312C158.296 171.631 150.285 159.205 149.663 143.552C149.042 127.898 156.053 114.937 165.321 114.605C174.588 114.274 182.612 126.712 183.22 142.365C183.828 158.019 176.803 170.98 167.563 171.312Z" fill="white" stroke="#888888" stroke-width="5.04976" stroke-miterlimit="10"/>
<path d="M165.294 114.605L179.965 113.317" stroke="#888888" stroke-width="5.04976" stroke-miterlimit="10"/>
<path d="M167.536 171.299L180.478 169.921" stroke="#888888" stroke-width="5.04976" stroke-miterlimit="10"/>
<path d="M167.415 145.924L164.888 139.175L163.51 140.081L167.415 145.924Z" fill="#888888" stroke="#888888" stroke-width="3.40923" stroke-miterlimit="10"/>
<path d="M164.469 144.675C163.348 144.675 162.524 142.965 162.619 140.924C162.713 138.883 163.672 137.275 164.78 137.314C165.888 137.352 166.725 139.036 166.631 141.064C166.536 143.093 165.577 144.713 164.469 144.675Z" fill="#888888" stroke="#888888" stroke-width="3.40923" stroke-miterlimit="10"/>
</g>
<defs>
<clipPath id="clip0_1239:9449">
<rect width="292.57" height="233.97" fill="white" transform="translate(0.980408 0.277344)"/>
</clipPath>
</defs>
</svg>
