<svg width="293" height="235" viewBox="0 0 293 235" fill="none" xmlns="http://www.w3.org/2000/svg">
<g clip-path="url(#clip0_1239:9435)">
<path d="M278.64 132.936C278.619 113.128 274.148 93.5761 265.554 75.7106C256.961 57.845 244.462 42.1184 228.973 29.682C213.484 17.2455 195.397 8.41418 176.036 3.83433C156.676 -0.74553 136.531 -0.957945 117.076 3.21267C97.6224 7.38329 79.3515 15.8314 63.6015 27.9384C47.8514 40.0455 35.0208 55.5051 26.0489 73.1854C17.0771 90.8658 12.1911 110.319 11.7486 130.122C11.3061 149.925 15.3184 169.575 23.4916 187.635H266.759C274.606 170.459 278.658 151.805 278.64 132.936Z" fill="#F3F3F3"/>
<path fill-rule="evenodd" clip-rule="evenodd" d="M15.1567 186.958C15.1567 186.613 15.2946 186.282 15.5399 186.037C15.7853 185.793 16.1181 185.656 16.4651 185.656H276.703C276.975 185.735 277.214 185.899 277.384 186.125C277.553 186.35 277.645 186.624 277.645 186.906C277.645 187.188 277.553 187.462 277.384 187.688C277.214 187.913 276.975 188.078 276.703 188.156H16.4128C16.0922 188.145 15.7872 188.016 15.5557 187.795C15.3241 187.574 15.1821 187.276 15.1567 186.958ZM0.4104 186.958C0.4104 186.613 0.548274 186.282 0.793656 186.037C1.03904 185.793 1.37183 185.656 1.71885 185.656H10.0668C10.3386 185.735 10.5773 185.899 10.7472 186.125C10.9171 186.35 11.0089 186.624 11.0089 186.906C11.0089 187.188 10.9171 187.462 10.7472 187.688C10.5773 187.913 10.3386 188.078 10.0668 188.156H1.71885C1.38923 188.157 1.07138 188.035 0.828795 187.813C0.586212 187.59 0.436769 187.285 0.4104 186.958ZM283.376 185.656C283.105 185.735 282.866 185.899 282.696 186.125C282.526 186.35 282.434 186.624 282.434 186.906C282.434 187.188 282.526 187.462 282.696 187.688C282.866 187.913 283.105 188.078 283.376 188.156H291.724C291.996 188.078 292.235 187.913 292.405 187.688C292.575 187.462 292.666 187.188 292.666 186.906C292.666 186.624 292.575 186.35 292.405 186.125C292.235 185.899 291.996 185.735 291.724 185.656H283.376Z" fill="#888888"/>
<path d="M144.314 234.247C189.94 234.247 226.917 230.9 226.917 226.784C226.917 222.669 189.94 219.309 144.314 219.309C98.6883 219.309 61.6722 222.656 61.6722 226.784C61.6722 230.913 98.7014 234.247 144.314 234.247Z" fill="#F3F3F3"/>
<path d="M83.7851 101.862H92.0022C92.0744 101.862 92.1458 101.876 92.2125 101.903C92.2791 101.931 92.3398 101.971 92.3908 102.022C92.4418 102.073 92.4823 102.133 92.5099 102.199C92.5376 102.266 92.5517 102.337 92.5517 102.409V115.237C92.5517 115.309 92.5376 115.38 92.5099 115.446C92.4823 115.513 92.4418 115.573 92.3908 115.624C92.3398 115.675 92.2791 115.715 92.2125 115.742C92.1458 115.77 92.0744 115.784 92.0022 115.784H83.7851C83.6394 115.784 83.4996 115.726 83.3965 115.624C83.2935 115.521 83.2355 115.382 83.2355 115.237V102.409C83.2355 102.264 83.2935 102.125 83.3965 102.022C83.4996 101.919 83.6394 101.862 83.7851 101.862Z" stroke="#888888" stroke-width="7.82621"/>
<path d="M201.048 101.862H209.266C209.338 101.862 209.409 101.876 209.476 101.903C209.543 101.931 209.603 101.971 209.654 102.022C209.705 102.073 209.746 102.133 209.773 102.199C209.801 102.266 209.815 102.337 209.815 102.409V115.237C209.817 115.309 209.804 115.381 209.777 115.449C209.75 115.516 209.71 115.577 209.658 115.628C209.607 115.679 209.545 115.719 209.478 115.746C209.41 115.773 209.338 115.786 209.266 115.784H201.048C200.976 115.784 200.905 115.77 200.838 115.742C200.771 115.715 200.711 115.675 200.66 115.624C200.609 115.573 200.568 115.513 200.541 115.446C200.513 115.38 200.499 115.309 200.499 115.237V102.409C200.499 102.337 200.513 102.266 200.541 102.199C200.568 102.133 200.609 102.073 200.66 102.022C200.711 101.971 200.771 101.931 200.838 101.903C200.905 101.876 200.976 101.862 201.048 101.862Z" stroke="#888888" stroke-width="7.82621"/>
<path d="M87.3701 112.867C87.9589 83.1339 114.01 58.8838 146.525 58.8838C179.04 58.8838 205.092 83.1339 205.68 112.867H87.3701Z" fill="white" stroke="#888888" stroke-width="6.71197"/>
<path d="M155.122 109.676H136.725L128.403 49.7672H163.418L155.122 109.676Z" fill="white" stroke="#888888" stroke-width="6.71197"/>
<path d="M210.692 125.422C210.709 127.206 210.015 128.923 208.761 130.198C207.508 131.473 205.797 132.2 204.005 132.221H89.3719C87.5801 132.2 85.8696 131.473 84.6161 130.198C83.3625 128.923 82.6683 127.206 82.6857 125.422V119.809V119.601V119.418V119.288V119.184V119.054V118.976V118.793V118.715H210.548C210.626 120.434 210.692 122.818 210.692 125.422Z" fill="white" stroke="#888888" stroke-width="6.71197"/>
<path d="M192.818 153.448C192.862 153.359 192.888 153.263 192.894 153.164C192.901 153.065 192.887 152.966 192.854 152.872C192.821 152.779 192.77 152.693 192.703 152.62C192.636 152.546 192.555 152.487 192.465 152.445C187.726 150.306 182.461 149.595 177.32 150.4C172.179 151.205 167.388 153.491 163.538 156.976C159.688 160.461 156.948 164.992 155.655 170.009C154.363 175.026 154.576 180.311 156.266 185.209C157.957 190.108 161.053 194.407 165.17 197.574C169.288 200.742 174.247 202.639 179.436 203.033C184.625 203.427 189.816 202.299 194.368 199.79C198.921 197.28 202.635 193.498 205.052 188.911C205.099 188.824 205.127 188.728 205.135 188.629C205.143 188.53 205.13 188.431 205.099 188.337C205.067 188.243 205.016 188.157 204.95 188.083C204.883 188.01 204.802 187.95 204.712 187.909L182.154 176.943C181.974 176.853 181.836 176.696 181.769 176.506C181.703 176.317 181.715 176.108 181.801 175.927L192.818 153.448Z" fill="white" stroke="#888888" stroke-width="8.07"/>
<path d="M89.9346 166.759H173.676V186.385H89.9346V166.759Z" fill="white" stroke="#888888" stroke-width="7.98538" stroke-linejoin="round"/>
</g>
<defs>
<clipPath id="clip0_1239:9435">
<rect width="292.57" height="233.97" fill="white" transform="translate(0.4104 0.277344)"/>
</clipPath>
</defs>
</svg>
