<svg width="120" height="94" viewBox="0 0 120 94" fill="none" xmlns="http://www.w3.org/2000/svg">
<path d="M112.647 53.2997C112.645 31.5316 99.4178 11.952 79.2343 3.84063C59.0508 -4.27074 35.9672 0.716157 20.9238 16.4378C5.88053 32.1594 1.90063 55.4564 10.8704 75.2871H107.907C111.038 68.3808 112.654 60.8835 112.647 53.2997Z" fill="#C6F7E2"/>
<path fill-rule="evenodd" clip-rule="evenodd" d="M0.998413 75C0.998413 74.3724 1.50718 73.8636 2.13478 73.8636H5.46343C6.09102 73.8636 6.59979 74.3724 6.59979 75C6.59979 75.6276 6.09102 76.1364 5.46343 76.1364H2.13478C1.50718 76.1364 0.998413 75.6276 0.998413 75ZM6.88344 75C6.88344 74.3724 7.39221 73.8636 8.01981 73.8636H111.874C112.501 73.8636 113.01 74.3724 113.01 75C113.01 75.6276 112.501 76.1364 111.874 76.1364H8.01981C7.39221 76.1364 6.88344 75.6276 6.88344 75ZM114.537 73.8636C113.909 73.8636 113.4 74.3724 113.4 75C113.4 75.6276 113.909 76.1364 114.537 76.1364H117.865C118.493 76.1364 119.002 75.6276 119.002 75C119.002 74.3724 118.493 73.8636 117.865 73.8636H114.537Z" fill="#02A783"/>
<path d="M32.5609 62.2813V77.375H49.093V62.2813V62.15V62.2813L61.069 45.875C62.3708 44.5625 62.3708 42.3313 61.069 40.8875C59.7673 39.575 57.5543 39.575 56.1224 40.8875L46.3594 53.75H33.8627C30.0876 53.75 26.9634 56.9 26.9634 60.7063V70.4188C26.9634 73.8313 29.3066 76.5875 32.5609 77.2438V62.2813Z" fill="#EFFCF6"/>
<path d="M40.7619 52.4375C44.5369 52.4375 47.6611 49.2875 47.6611 45.4813C47.6611 41.675 44.5369 38.525 40.7619 38.525C36.9868 38.525 33.8627 41.675 33.8627 45.4813C33.8627 49.2875 36.9868 52.4375 40.7619 52.4375Z" fill="#EFFCF6"/>
<path d="M91.6599 77.375C94.7841 76.7188 97.2574 73.9625 97.2574 70.55V60.8376C97.2574 57.0313 94.1332 53.8813 90.3582 53.8813H77.8615L67.9682 41.0188C66.6665 39.7063 64.4535 39.7063 63.0216 41.0188C61.7199 42.3313 61.7199 44.5626 63.0216 46.0063L75.1278 62.2813V62.1501V62.2813V77.375H91.6599V62.2813V62.1501V62.2813V77.375Z" fill="#EFFCF6"/>
<path d="M83.4589 52.4375C79.6839 52.4375 76.5597 49.2875 76.5597 45.4813C76.5597 41.675 79.6839 38.525 83.4589 38.525C87.234 38.525 90.3581 41.675 90.3581 45.4813C90.3581 49.2875 87.234 52.4375 83.4589 52.4375Z" fill="#EFFCF6"/>
<path d="M62.2408 17H62.1104V23.9563H62.2408V17Z" fill="white"/>
<path d="M49.3596 23.2962L49.2871 23.4053L55.782 27.7795L55.8544 27.6705L49.3596 23.2962Z" fill="white"/>
<path d="M74.8027 23.2537L68.3138 27.6362L68.3862 27.7452L74.8751 23.3628L74.8027 23.2537Z" fill="white"/>
<path d="M62.1104 32.75C62.9013 32.75 63.5424 32.1036 63.5424 31.3062C63.5424 30.5089 62.9013 29.8625 62.1104 29.8625C61.3196 29.8625 60.6785 30.5089 60.6785 31.3062C60.6785 32.1036 61.3196 32.75 62.1104 32.75Z" fill="white"/>
<path d="M30.8669 62.5938V77.6875H47.399V62.5938V62.4625V62.5938L59.375 46.1875C60.6767 44.875 60.6767 42.6438 59.375 41.2C58.0732 39.8875 55.8603 39.8875 54.4284 41.2L44.6653 54.0625H32.1686C28.3936 54.0625 25.2694 57.2125 25.2694 61.0188V70.7313C25.2694 74.1438 27.6125 76.9 30.8669 77.5563V62.5938Z" stroke="#02A783" stroke-width="3" stroke-miterlimit="10" stroke-linecap="round" stroke-linejoin="round"/>
<path d="M39.0679 52.75C42.8429 52.75 45.9671 49.6 45.9671 45.7938C45.9671 41.9875 42.8429 38.8375 39.0679 38.8375C35.2928 38.8375 32.1686 41.9875 32.1686 45.7938C32.1686 49.6 35.2928 52.75 39.0679 52.75Z" stroke="#02A783" stroke-width="3" stroke-miterlimit="10" stroke-linecap="round" stroke-linejoin="round"/>
<path d="M89.9659 77.6875C93.09 77.0313 95.5633 74.275 95.5633 70.8625V61.1501C95.5633 57.3438 92.4392 54.1938 88.6641 54.1938H76.1674L66.2742 41.3313C64.9725 40.0188 62.7595 40.0188 61.3276 41.3313C60.0259 42.6438 60.0259 44.8751 61.3276 46.3188L73.4338 62.5938V62.4626V62.5938V77.6875H89.9659ZM89.9659 77.6875V62.5938V62.4626V62.5938V77.6875Z" stroke="#02A783" stroke-width="3" stroke-miterlimit="10" stroke-linecap="round" stroke-linejoin="round"/>
<path d="M81.7649 52.75C77.9898 52.75 74.8657 49.6 74.8657 45.7938C74.8657 41.9875 77.9898 38.8375 81.7649 38.8375C85.5399 38.8375 88.6641 41.9875 88.6641 45.7938C88.6641 49.6 85.5399 52.75 81.7649 52.75Z" stroke="#02A783" stroke-width="3" stroke-miterlimit="10" stroke-linecap="round" stroke-linejoin="round"/>
<path d="M60.5467 17.3125H60.4164V24.2688H60.5467V17.3125Z" stroke="#02A783" stroke-width="3" stroke-miterlimit="10" stroke-linecap="round" stroke-linejoin="round"/>
<path d="M47.6655 23.6087L47.5931 23.7178L54.088 28.092L54.1604 27.983L47.6655 23.6087Z" stroke="#02A783" stroke-width="3" stroke-miterlimit="10" stroke-linecap="round" stroke-linejoin="round"/>
<path d="M73.1087 23.5662L66.6198 27.9487L66.6922 28.0577L73.1811 23.6753L73.1087 23.5662Z" stroke="#02A783" stroke-width="3" stroke-miterlimit="10" stroke-linecap="round" stroke-linejoin="round"/>
<path d="M60.4164 33.0625C61.2072 33.0625 61.8483 32.4161 61.8483 31.6187C61.8483 30.8214 61.2072 30.175 60.4164 30.175C59.6256 30.175 58.9845 30.8214 58.9845 31.6187C58.9845 32.4161 59.6256 33.0625 60.4164 33.0625Z" stroke="#02A783" stroke-width="3" stroke-miterlimit="10" stroke-linecap="round" stroke-linejoin="round"/>
<path d="M61.9143 94C82.3201 94 98.8623 92.6569 98.8623 91C98.8623 89.3431 82.3201 88 61.9143 88C41.5084 88 24.9662 89.3431 24.9662 91C24.9662 92.6569 41.5084 94 61.9143 94Z" fill="#EBEFEE"/>
</svg>
