<svg width="294" height="235" viewBox="0 0 294 235" fill="none" xmlns="http://www.w3.org/2000/svg">
<g clip-path="url(#clip0_1239:9500)">
<path d="M278.535 137.232C278.525 118.682 274.085 100.368 265.539 83.6307C256.993 66.8933 244.558 52.1554 229.143 40.4949C213.728 28.8344 195.723 20.5462 176.445 16.2366C157.167 11.927 137.104 11.705 117.723 15.5866C98.3414 19.4683 80.1321 27.3556 64.4269 38.6716C48.7216 49.9876 35.9176 64.4462 26.9512 80.9897C17.9848 97.5333 13.0828 115.743 12.6039 134.288C12.125 152.833 16.0812 171.244 24.1831 188.174H266.701C274.51 172.186 278.546 154.811 278.535 137.232Z" fill="#F3F3F3"/>
<path fill-rule="evenodd" clip-rule="evenodd" d="M0.690432 186.575C0.689623 186.154 0.864372 185.751 1.17675 185.452C1.33159 185.302 1.51654 185.184 1.72069 185.103C1.92485 185.021 2.1441 184.98 2.36557 184.98H10.6603C10.8819 184.979 11.1013 185.02 11.3056 185.102C11.5098 185.183 11.6947 185.302 11.8491 185.452C12.1615 185.751 12.3362 186.154 12.3354 186.575C12.3319 186.993 12.1542 187.394 11.8408 187.689C11.5275 187.985 11.1035 188.153 10.6603 188.156H2.36557C1.92238 188.153 1.49838 187.985 1.18499 187.689C0.871602 187.394 0.693964 186.993 0.690432 186.575ZM15.375 186.575C15.3792 186.153 15.5587 185.75 15.8748 185.452C16.0292 185.302 16.2141 185.183 16.4184 185.102C16.6226 185.02 16.8421 184.979 17.0636 184.98H276.698C277.145 184.983 277.572 185.152 277.888 185.451C278.204 185.749 278.383 186.153 278.387 186.575C278.388 186.782 278.344 186.987 278.259 187.178C278.173 187.369 278.046 187.541 277.887 187.684C277.733 187.835 277.548 187.954 277.343 188.035C277.139 188.116 276.92 188.157 276.698 188.156H17.0636C16.8421 188.157 16.6226 188.116 16.4184 188.035C16.2141 187.954 16.0292 187.835 15.8748 187.684C15.7181 187.54 15.5933 187.367 15.5075 187.177C15.4217 186.986 15.3767 186.782 15.375 186.575ZM283.264 184.98C282.817 184.983 282.389 185.152 282.073 185.451C281.758 185.749 281.578 186.153 281.575 186.575C281.573 186.782 281.617 186.987 281.703 187.178C281.789 187.369 281.916 187.541 282.075 187.684C282.229 187.835 282.414 187.954 282.618 188.035C282.823 188.116 283.042 188.157 283.264 188.156H291.558C292.001 188.153 292.425 187.985 292.739 187.689C293.052 187.394 293.23 186.993 293.233 186.575C293.234 186.154 293.059 185.751 292.747 185.452C292.593 185.302 292.408 185.183 292.204 185.102C291.999 185.02 291.78 184.979 291.558 184.98H283.264Z" fill="#888888"/>
<path d="M144.605 233.393C190.104 233.393 226.93 230.229 226.93 226.338C226.93 222.447 190.077 219.309 144.605 219.309C99.1325 219.309 62.2793 222.447 62.2793 226.338C62.2793 230.229 99.1325 233.393 144.605 233.393Z" fill="#F3F3F3"/>
<path d="M87.5338 58.8771V90.7427C87.7844 93.9738 88.7062 97.1168 90.2404 99.9703C91.7745 102.824 93.8872 105.325 96.4428 107.313C101.634 112.154 108.441 114.881 115.533 114.961H230.077V136.119L114.261 135.355C108.526 135.365 102.866 134.057 97.7155 131.531C93.8965 129.605 90.4492 127.015 87.5338 123.883V178.118H68.4432V58.8771H87.5338Z" fill="white"/>
<path d="M87.5339 181.305H68.4432C67.5994 181.305 66.79 180.969 66.1933 180.371C65.5966 179.774 65.2615 178.963 65.2615 178.118V58.8771C65.2615 58.032 65.5966 57.2214 66.1933 56.6238C66.79 56.0262 67.5994 55.6906 68.4432 55.6906H87.5339C88.3777 55.6906 89.1871 56.0262 89.7838 56.6238C90.3805 57.2214 90.7156 58.032 90.7156 58.8771V90.6153C90.9408 93.38 91.7356 96.0679 93.0499 98.5096C94.3642 100.951 96.1695 103.094 98.3519 104.802L98.5556 104.98C103.171 109.278 109.219 111.7 115.521 111.774H230.064C230.908 111.774 231.718 112.11 232.314 112.707C232.911 113.305 233.246 114.115 233.246 114.961V136.119C233.242 136.966 232.903 137.777 232.304 138.375C232.01 138.677 231.658 138.916 231.268 139.076C230.878 139.236 230.46 139.314 230.039 139.306L114.223 138.541C108.001 138.558 101.86 137.136 96.2774 134.386C94.3245 133.405 92.4594 132.258 90.7029 130.957V178.118C90.7029 178.961 90.3695 179.77 89.7755 180.367C89.1816 180.964 88.3755 181.301 87.5339 181.305ZM71.625 174.932H84.3521V123.947C84.3466 123.306 84.5348 122.678 84.8923 122.147C85.2497 121.615 85.7596 121.204 86.3547 120.968C86.9497 120.732 87.6022 120.682 88.2261 120.825C88.8501 120.968 89.4162 121.296 89.8501 121.767C92.5062 124.628 95.653 126.99 99.1409 128.739C103.853 131.057 109.037 132.252 114.286 132.232L226.895 132.971V118.147H115.533C107.687 118.07 100.148 115.076 94.381 109.747C91.4258 107.41 88.997 104.474 87.2539 101.131C85.6107 97.9632 84.6278 94.4939 84.3648 90.9339C84.3585 90.8533 84.3585 90.7723 84.3648 90.6917V62.0637H71.6378L71.625 174.932Z" fill="#888888"/>
<path d="M99.6246 166.953H56.429V182.962H99.6246V166.953Z" fill="white"/>
<path d="M99.6244 185.817H56.4288C55.6727 185.817 54.9475 185.516 54.4128 184.98C53.8782 184.445 53.5778 183.719 53.5778 182.961V166.952C53.5778 166.195 53.8782 165.469 54.4128 164.933C54.9475 164.398 55.6727 164.097 56.4288 164.097H99.6244C100.38 164.097 101.106 164.398 101.64 164.933C102.175 165.469 102.475 166.195 102.475 166.952V182.961C102.475 183.719 102.175 184.445 101.64 184.98C101.106 185.516 100.38 185.817 99.6244 185.817ZM59.2796 180.106H96.7735V169.807H59.2796V180.106Z" fill="#888888"/>
<path d="M152.607 103.489H146.244V113.686H152.607V103.489Z" fill="white"/>
<path d="M152.607 100.302H146.244C144.486 100.302 143.062 101.729 143.062 103.489V113.686C143.062 115.446 144.486 116.872 146.244 116.872H152.607C154.364 116.872 155.789 115.446 155.789 113.686V103.489C155.789 101.729 154.364 100.302 152.607 100.302Z" fill="#888888"/>
<path d="M142.108 93.9293C141.986 92.3377 142.437 90.755 143.38 89.4681C145.096 87.8316 147.375 86.9188 149.744 86.9188C152.113 86.9188 154.392 87.8316 156.107 89.4681C157.038 90.7609 157.488 92.339 157.38 93.9293" fill="white"/>
<path d="M157.38 97.116H157.151C156.311 97.0571 155.529 96.6671 154.975 96.0316C154.422 95.3961 154.142 94.5668 154.198 93.7254C154.264 92.9014 154.039 92.0805 153.562 91.4057C153.115 90.9462 152.571 90.5931 151.969 90.3725C151.368 90.1519 150.725 90.0694 150.087 90.131C149.846 90.1565 149.603 90.1565 149.362 90.131C148.728 90.0705 148.089 90.1536 147.492 90.3742C146.895 90.5949 146.355 90.9475 145.913 91.4057C145.436 92.0805 145.211 92.9014 145.277 93.7254C145.305 94.1439 145.251 94.564 145.117 94.9615C144.984 95.359 144.773 95.7262 144.498 96.0422C144.222 96.3582 143.887 96.6168 143.512 96.8032C143.137 96.9896 142.729 97.1003 142.311 97.1287C141.893 97.1572 141.474 97.1029 141.077 96.9691C140.68 96.8352 140.313 96.6243 139.998 96.3486C139.682 96.0728 139.424 95.7375 139.238 95.3618C139.052 94.9861 138.941 94.5774 138.913 94.1589C138.743 91.8005 139.42 89.4588 140.822 87.5563C141.971 86.3469 143.352 85.3839 144.884 84.7259C146.415 84.0679 148.065 83.7285 149.731 83.7285C151.398 83.7285 153.047 84.0679 154.578 84.7259C156.11 85.3839 157.492 86.3469 158.64 87.5563C160.042 89.4588 160.719 91.8005 160.549 94.1589C160.491 94.9615 160.132 95.7123 159.545 96.2608C158.957 96.8093 158.183 97.1148 157.38 97.116Z" fill="#888888"/>
<path d="M125.88 102.214H173.607V88.9327L169.7 85.6442L156.069 92.0173H142.438L129.775 85.6442L125.88 88.5758V102.214Z" fill="white"/>
<path d="M173.594 105.401H125.868C125.024 105.401 124.214 105.065 123.618 104.468C123.021 103.87 122.686 103.06 122.686 102.215V88.5761C122.688 88.0818 122.804 87.5945 123.024 87.1523C123.245 86.7101 123.565 86.3251 123.958 86.0269L127.866 83.0952C128.338 82.7381 128.901 82.5212 129.491 82.4694C130.081 82.4176 130.673 82.5329 131.2 82.8021L143.189 88.831H155.356L168.363 82.751C168.912 82.4956 169.523 82.4032 170.123 82.4845C170.723 82.5658 171.287 82.8175 171.749 83.2099L175.643 86.4857C176 86.7822 176.287 87.1543 176.483 87.5754C176.679 87.9964 176.779 88.4557 176.776 88.9202V102.215C176.778 102.633 176.696 103.049 176.537 103.436C176.378 103.823 176.144 104.175 175.848 104.472C175.552 104.768 175.2 105.002 174.814 105.162C174.427 105.322 174.012 105.403 173.594 105.401ZM129.049 99.028H170.412V90.4115L169.216 89.3918L157.418 94.911C156.994 95.103 156.534 95.2029 156.069 95.2041H142.425C141.93 95.204 141.441 95.086 141 94.8599L130.106 89.3792L129.049 90.1694V99.028Z" fill="#888888"/>
<path d="M149.807 109.862H149.044C145.213 109.862 142.107 112.972 142.107 116.809V132.232C142.107 136.068 145.213 139.178 149.044 139.178H149.807C153.638 139.178 156.744 136.068 156.744 132.232V116.809C156.744 112.972 153.638 109.862 149.807 109.862Z" fill="white"/>
<path d="M149.795 142.365H149.043C146.354 142.348 143.781 141.266 141.885 139.356C139.989 137.445 138.925 134.861 138.926 132.168V116.873C138.925 114.179 139.989 111.595 141.885 109.685C143.781 107.774 146.354 106.692 149.043 106.676H149.795C152.495 106.676 155.085 107.75 156.994 109.662C158.903 111.574 159.976 114.168 159.976 116.873V132.168C159.976 134.872 158.903 137.466 156.994 139.378C155.085 141.291 152.495 142.365 149.795 142.365ZM149.043 113.049C148.042 113.065 147.087 113.476 146.385 114.191C145.682 114.906 145.289 115.869 145.289 116.873V132.168C145.289 133.171 145.682 134.134 146.385 134.85C147.087 135.565 148.042 135.975 149.043 135.992H149.795C150.807 135.992 151.778 135.589 152.494 134.872C153.21 134.155 153.613 133.182 153.613 132.168V116.873C153.613 115.858 153.21 114.886 152.494 114.169C151.778 113.452 150.807 113.049 149.795 113.049H149.043Z" fill="#888888"/>
<path d="M99.0137 50.9872H55.818V66.9965H99.0137V50.9872Z" fill="white"/>
<path d="M99.0135 69.8514H55.8178C55.0617 69.8514 54.3366 69.5507 53.802 69.0152C53.2673 68.4798 52.9669 67.7535 52.9669 66.9962V50.9743C52.9669 50.5999 53.0408 50.2293 53.1843 49.8836C53.3277 49.5379 53.5379 49.2239 53.8028 48.9598C54.0676 48.6957 54.382 48.4865 54.7278 48.3444C55.0736 48.2023 55.444 48.1301 55.8178 48.1317H99.0135C99.3873 48.1301 99.7577 48.2023 100.104 48.3444C100.449 48.4865 100.764 48.6957 101.029 48.9598C101.293 49.2239 101.504 49.5379 101.647 49.8836C101.791 50.2293 101.864 50.5999 101.864 50.9743V66.9962C101.864 67.7535 101.564 68.4798 101.029 69.0152C100.495 69.5507 99.7696 69.8514 99.0135 69.8514ZM58.6686 64.1411H96.1627V53.8294H58.6686V64.1411Z" fill="#888888"/>
<path d="M238.133 103.642H222.148V146.903H238.133V103.642Z" fill="white"/>
<path d="M238.133 149.758H222.148C221.392 149.758 220.667 149.457 220.132 148.921C219.598 148.386 219.297 147.66 219.297 146.903V103.642C219.297 102.885 219.598 102.158 220.132 101.623C220.667 101.087 221.392 100.787 222.148 100.787H238.133C238.889 100.787 239.615 101.087 240.149 101.623C240.684 102.158 240.984 102.885 240.984 103.642V146.903C240.984 147.66 240.684 148.386 240.149 148.921C239.615 149.457 238.889 149.758 238.133 149.758ZM224.986 144.047H235.282V106.484H224.986V144.047Z" fill="#888888"/>
<path d="M148.753 162.823C148.753 164.436 148.113 165.982 146.975 167.122C145.836 168.263 144.292 168.903 142.682 168.903C141.072 168.903 139.528 168.263 138.389 167.122C137.251 165.982 136.611 164.436 136.611 162.823C136.611 159.445 142.58 149.414 142.58 149.414C142.58 149.414 148.753 159.445 148.753 162.823Z" fill="white"/>
<path d="M142.682 171.885C141.493 171.887 140.316 171.654 139.217 171.199C138.119 170.744 137.121 170.077 136.28 169.235C135.439 168.393 134.773 167.393 134.319 166.293C133.865 165.193 133.632 164.013 133.633 162.823C133.633 158.922 138.521 150.408 139.997 147.884L142.542 143.64L145.088 147.846C147.073 151.071 151.706 159.012 151.706 162.823C151.708 164.009 151.473 165.183 151.017 166.278C150.56 167.372 149.89 168.364 149.046 169.196C147.359 170.894 145.074 171.86 142.682 171.885ZM142.682 155.481C140.926 158.871 139.666 161.854 139.653 162.823C139.655 163.644 139.98 164.432 140.557 165.015C141.15 165.567 141.93 165.874 142.74 165.874C143.549 165.874 144.329 165.567 144.922 165.015C145.21 164.728 145.439 164.386 145.594 164.01C145.749 163.633 145.828 163.23 145.826 162.823C145.75 161.854 144.477 158.871 142.631 155.481H142.682Z" fill="#888888"/>
<path d="M153.486 181.961C153.486 182.871 153.17 183.744 152.608 184.388C152.045 185.031 151.282 185.393 150.486 185.393C149.691 185.393 148.928 185.031 148.365 184.388C147.802 183.744 147.486 182.871 147.486 181.961C147.486 180.061 150.433 174.393 150.433 174.393C150.433 174.393 153.486 180.061 153.486 181.961Z" fill="white"/>
<path d="M150.457 186.393C149.14 186.389 147.878 185.88 146.946 184.978C146.015 184.075 145.49 182.852 145.486 181.576C145.486 179.499 148.165 174.984 148.983 173.643L150.367 171.393L151.855 173.614C152.942 175.331 155.486 179.556 155.486 181.576C155.482 182.852 154.958 184.075 154.026 184.978C153.095 185.88 151.833 186.389 150.516 186.393H150.457ZM150.457 177.739C149.71 178.958 149.149 180.274 148.79 181.648C148.791 182.08 148.967 182.495 149.281 182.802C149.605 183.099 150.033 183.265 150.479 183.265C150.925 183.265 151.353 183.099 151.677 182.802C151.995 182.496 152.176 182.082 152.183 181.648C151.797 180.246 151.206 178.906 150.427 177.667L150.457 177.739Z" fill="#888888"/>
</g>
<defs>
<clipPath id="clip0_1239:9500">
<rect width="292.57" height="233.97" fill="white" transform="translate(0.69043 0.277344)"/>
</clipPath>
</defs>
</svg>
