<svg width="120" height="94" viewBox="0 0 120 94" fill="none" xmlns="http://www.w3.org/2000/svg">
<path d="M112.647 53.2997C112.645 31.5316 99.4178 11.952 79.2343 3.84063C59.0508 -4.27074 35.9671 0.716157 20.9238 16.4378C5.88049 32.1594 1.9006 55.4564 10.8704 75.2871H107.907C111.038 68.3808 112.654 60.8835 112.647 53.2997Z" fill="#C6F7E2"/>
<path fill-rule="evenodd" clip-rule="evenodd" d="M0.998413 75C0.998413 74.3724 1.50718 73.8636 2.13478 73.8636H5.46343C6.09102 73.8636 6.59979 74.3724 6.59979 75C6.59979 75.6276 6.09102 76.1364 5.46343 76.1364H2.13478C1.50718 76.1364 0.998413 75.6276 0.998413 75ZM6.88344 75C6.88344 74.3724 7.39221 73.8636 8.01981 73.8636H111.874C112.501 73.8636 113.01 74.3724 113.01 75C113.01 75.6276 112.501 76.1364 111.874 76.1364H8.01981C7.39221 76.1364 6.88344 75.6276 6.88344 75ZM114.537 73.8636C113.909 73.8636 113.4 74.3724 113.4 75C113.4 75.6276 113.909 76.1364 114.537 76.1364H117.865C118.493 76.1364 119.002 75.6276 119.002 75C119.002 74.3724 118.493 73.8636 117.865 73.8636H114.537Z" fill="#02A783"/>
<path d="M59.0546 94C77.2544 94 92.0083 92.6569 92.0083 91C92.0083 89.3431 77.2544 88 59.0546 88C40.8549 88 26.101 89.3431 26.101 91C26.101 92.6569 40.8549 94 59.0546 94Z" fill="#EBEFEE"/>
<path d="M87.8778 78L33.4543 79L30.9579 78L59.4178 37.5V24.5L60.4164 19H76.3939L72.8988 24L76.3939 28.5H60.4164V37.5L87.8778 78Z" fill="#EFFCF6"/>
<path d="M59.9794 19.24H59.8548V38.46H59.9794V19.24Z" stroke="#02A783" stroke-width="3" stroke-miterlimit="10" stroke-linecap="round" stroke-linejoin="round"/>
<path d="M77.4185 29.16L72.4359 24.2L77.4185 19.24H59.9794V29.16H77.4185Z" stroke="#02A783" stroke-width="3" stroke-miterlimit="10" stroke-linecap="round" stroke-linejoin="round"/>
<path d="M59.9794 53.34L66.2076 59.54L72.0621 53.712L61.9724 39.576C60.9759 38.212 58.8583 38.212 57.8618 39.576L47.772 53.712L53.6266 59.54L59.9794 53.34Z" stroke="#02A783" stroke-width="3" stroke-miterlimit="10" stroke-linecap="round" stroke-linejoin="round"/>
<path d="M88.5047 76.776L87.1345 74.792L72.0622 53.712L66.2076 59.54L59.9794 53.34L53.7511 59.54L47.8966 53.712L32.8242 74.792L31.454 76.776C30.8312 77.644 31.454 78.76 32.4505 78.76H87.3836C88.5047 78.76 89.003 77.644 88.5047 76.776Z" stroke="#02A783" stroke-width="3" stroke-miterlimit="10" stroke-linecap="round" stroke-linejoin="round"/>
<path d="M77.4184 36.6H72.4359V36.724H77.4184V36.6Z" stroke="#02A783" stroke-width="3" stroke-miterlimit="10" stroke-linecap="round" stroke-linejoin="round"/>
<path d="M83.6467 36.6H82.401V36.724H83.6467V36.6Z" stroke="#02A783" stroke-width="3" stroke-miterlimit="10" stroke-linecap="round" stroke-linejoin="round"/>
</svg>
