<svg width="120" height="94" viewBox="0 0 120 94" fill="none" xmlns="http://www.w3.org/2000/svg">
<path opacity="0.4" d="M112.647 53.2997C112.645 31.5316 99.4178 11.952 79.2343 3.84063C59.0508 -4.27074 35.9671 0.716157 20.9238 16.4378C5.88049 32.1594 1.9006 55.4564 10.8704 75.2871H107.907C111.038 68.3808 112.654 60.8835 112.647 53.2997Z" fill="#EC979B"/>
<path fill-rule="evenodd" clip-rule="evenodd" d="M0.998413 75C0.998413 74.3724 1.50718 73.8636 2.13478 73.8636H5.46343C6.09102 73.8636 6.59979 74.3724 6.59979 75C6.59979 75.6276 6.09102 76.1364 5.46343 76.1364H2.13478C1.50718 76.1364 0.998413 75.6276 0.998413 75ZM6.88344 75C6.88344 74.3724 7.39221 73.8636 8.01981 73.8636H111.874C112.501 73.8636 113.01 74.3724 113.01 75C113.01 75.6276 112.501 76.1364 111.874 76.1364H8.01981C7.39221 76.1364 6.88344 75.6276 6.88344 75ZM114.537 73.8636C113.909 73.8636 113.4 74.3724 113.4 75C113.4 75.6276 113.909 76.1364 114.537 76.1364H117.865C118.493 76.1364 119.002 75.6276 119.002 75C119.002 74.3724 118.493 73.8636 117.865 73.8636H114.537Z" fill="#E12D39"/>
<path opacity="0.5" d="M59.0546 94C77.2544 94 92.0083 92.6569 92.0083 91C92.0083 89.3431 77.2544 88 59.0546 88C40.8549 88 26.101 89.3431 26.101 91C26.101 92.6569 40.8549 94 59.0546 94Z" fill="#EBEFEE"/>
<path d="M81.8862 34L63.9115 28.5L51.9283 29.5L37.948 36C38.1144 44.3333 38.3474 61.4 37.948 63C37.5486 64.6 43.7731 70.6667 46.9354 73.5L60.9157 81.5L64.9101 80.5L74.896 73.5L81.8862 65L83.8834 42L81.8862 34Z" fill="#FEEAEE"/>
<path d="M60.9157 82C60.9157 82 83.8834 73.6 83.8834 57V35C83.8834 35 73.5978 28 60.9157 28C48.2335 28 37.948 35 37.948 35V57C37.948 73.6 60.9157 82 60.9157 82Z" stroke="#E12D39" stroke-width="3" stroke-linejoin="round"/>
<path d="M60.9157 47C62.5702 47 63.9115 45.6569 63.9115 44C63.9115 42.3431 62.5702 41 60.9157 41C59.2612 41 57.9199 42.3431 57.9199 44C57.9199 45.6569 59.2612 47 60.9157 47Z" stroke="#E12D39" stroke-width="3" stroke-linecap="round" stroke-linejoin="round"/>
<path d="M59.9171 56V74" stroke="#E12D39" stroke-width="2" stroke-linecap="round" stroke-linejoin="round"/>
<path d="M70.1028 38.4C66.9073 35.2 54.9241 35.2 51.7286 38.4C49.332 40.7 49.332 49.3 51.7286 51.6C52.6274 52.5 54.1253 53.1 55.9227 53.5V70L59.9171 74H61.9143L65.9087 70V69L63.9115 67L65.9087 65L63.9115 63L65.9087 61L63.9115 59L65.9087 57V53.5C67.7061 53.1 69.204 52.5 70.1028 51.6C72.4994 49.3 72.4994 40.7 70.1028 38.4Z" stroke="#E12D39" stroke-width="3" stroke-linecap="round" stroke-linejoin="round"/>
</svg>
