<svg width="293" height="235" viewBox="0 0 293 235" fill="none" xmlns="http://www.w3.org/2000/svg">
<g clip-path="url(#clip0_1239:9526)">
<path d="M278.119 137.232C278.109 118.682 273.668 100.368 265.123 83.6307C256.577 66.8933 244.142 52.1554 228.727 40.4949C213.312 28.8344 195.307 20.5462 176.029 16.2366C156.751 11.927 136.688 11.705 117.306 15.5866C97.925 19.4683 79.7157 27.3556 64.0105 38.6716C48.3052 49.9876 35.5012 64.4462 26.5348 80.9897C17.5685 97.5333 12.6665 115.743 12.1875 134.288C11.7086 152.833 15.6648 171.244 23.7667 188.174H266.285C274.093 172.186 278.13 154.811 278.119 137.232Z" fill="#F3F3F3"/>
<path fill-rule="evenodd" clip-rule="evenodd" d="M0.274051 186.575C0.273242 186.154 0.44799 185.751 0.760364 185.452C0.915211 185.302 1.10016 185.184 1.30431 185.103C1.50847 185.021 1.72772 184.98 1.94919 184.98H10.2439C10.4655 184.979 10.6849 185.02 10.8892 185.102C11.0934 185.183 11.2783 185.302 11.4327 185.452C11.7451 185.751 11.9198 186.154 11.919 186.575C11.9155 186.993 11.7379 187.394 11.4245 187.689C11.1111 187.985 10.6871 188.153 10.2439 188.156H1.94919C1.506 188.153 1.082 187.985 0.76861 187.689C0.455221 187.394 0.277582 186.993 0.274051 186.575ZM14.9586 186.575C14.9628 186.153 15.1424 185.75 15.4584 185.452C15.6128 185.302 15.7977 185.183 16.002 185.102C16.2062 185.02 16.4257 184.979 16.6473 184.98H276.282C276.728 184.983 277.156 185.152 277.472 185.451C277.788 185.749 277.967 186.153 277.97 186.575C277.972 186.782 277.928 186.987 277.842 187.178C277.756 187.369 277.63 187.541 277.471 187.684C277.316 187.835 277.131 187.954 276.927 188.035C276.723 188.116 276.503 188.157 276.282 188.156H16.6473C16.4257 188.157 16.2062 188.116 16.002 188.035C15.7977 187.954 15.6128 187.835 15.4584 187.684C15.3017 187.54 15.1769 187.367 15.0911 187.177C15.0053 186.986 14.9603 186.782 14.9586 186.575ZM282.847 184.98C282.4 184.983 281.973 185.152 281.657 185.451C281.341 185.749 281.162 186.153 281.159 186.575C281.157 186.782 281.201 186.987 281.287 187.178C281.373 187.369 281.499 187.541 281.658 187.684C281.813 187.835 281.998 187.954 282.202 188.035C282.406 188.116 282.626 188.157 282.847 188.156H291.142C291.585 188.153 292.009 187.985 292.322 187.689C292.636 187.394 292.813 186.993 292.817 186.575C292.818 186.154 292.643 185.751 292.331 185.452C292.176 185.302 291.992 185.183 291.787 185.102C291.583 185.02 291.363 184.979 291.142 184.98H282.847Z" fill="#888888"/>
<path d="M144.188 233.393C189.687 233.393 226.514 230.229 226.514 226.338C226.514 222.447 189.66 219.309 144.188 219.309C98.7161 219.309 61.8629 222.447 61.8629 226.338C61.8629 230.229 98.7161 233.393 144.188 233.393Z" fill="#F3F3F3"/>
<path d="M70.4408 27.1933L73.71 20.2766C77.1143 15.1971 86.6114 15.6564 95.4194 21.6275C104.227 27.5986 108.618 36.4877 105.214 41.5401L102.188 46.3765L70.4408 27.1933Z" fill="white" stroke="#888888" stroke-width="6.33584"/>
<path d="M90.9746 30.1652C94.8937 32.6324 98.1128 36.0655 100.323 40.1351C101.331 41.3798 101.913 42.915 101.983 44.5151C102.054 46.1151 101.609 47.6956 100.715 49.0242C99.8244 50.3527 98.5319 51.3612 97.0267 51.9016C95.5246 52.4524 93.884 52.4998 92.3525 52.0367C87.7947 51.488 83.4312 49.8692 79.6184 47.3124C75.8056 44.7556 72.6514 41.3334 70.4135 37.3251C69.4172 36.0762 68.8451 34.5421 68.7802 32.9458C68.7154 31.3495 69.1612 29.7741 70.053 28.4485C70.9448 27.1229 72.236 26.1162 73.739 25.5746C75.2421 25.033 76.8786 24.9848 78.4109 25.437C82.9299 25.9311 87.2512 27.5573 90.9746 30.1652Z" fill="#E0E0E0" stroke="#888888" stroke-width="6.33584"/>
<path d="M36.2218 97.4956C36.7223 94.2741 37.8465 91.1813 39.5316 88.3904L70.7785 36.1501C72.8184 33.0159 80.0323 33.7994 86.868 38.1224C93.7037 42.4454 97.5944 48.6056 95.5139 51.8343L70.6029 92.2C70.5239 92.3204 70.4816 92.4612 70.4812 92.6052C70.4787 92.7504 70.5112 92.894 70.5758 93.024C70.646 93.1483 70.7488 93.2511 70.8731 93.3212C70.9945 93.4 71.1339 93.4465 71.2783 93.4563L91.2855 93.5779L88.354 121.042L54.4458 120.934C51.0373 120.53 47.7792 119.299 44.9541 117.35C42.1291 115.401 39.8225 112.791 38.2346 109.748C36.1522 106.025 35.44 101.69 36.2218 97.4956Z" fill="white" stroke="#888888" stroke-width="6.33584"/>
<path d="M140.257 124.946C146.376 124.838 151.213 117.503 151.064 108.573C150.915 99.6435 145.822 92.4836 139.703 92.5917C133.583 92.6997 128.747 100.022 128.895 108.951C129.044 117.881 134.137 125.054 140.257 124.946Z" fill="white" stroke="#888888" stroke-width="6.33584"/>
<path d="M91.7448 124.798C86.4356 124.244 79.0326 115.733 79.9648 106.601C80.8969 97.4683 88.9349 91.916 94.2305 92.4563L138.122 92.7535C132.718 92.9292 127.706 98.9273 127.463 108.262C127.585 122.555 136.704 124.784 136.704 124.784H91.8799" fill="#E0E0E0"/>
<path d="M91.7448 124.797C86.4356 124.244 79.0326 115.733 79.9648 106.601C80.8969 97.4683 88.9349 91.916 94.2305 92.4563L138.122 92.7535C132.718 92.9292 127.706 98.9273 127.463 108.262C127.585 122.555 136.704 124.784 136.704 124.784H91.8799" stroke="#888888" stroke-width="6.33584" stroke-linecap="round" stroke-linejoin="round"/>
<path d="M256.963 119.76C256.505 122.985 255.437 126.093 253.816 128.919L223.528 181.7C221.515 184.874 214.288 184.226 207.317 179.998C200.346 175.769 196.415 169.717 198.428 166.488L222.663 125.677C222.734 125.553 222.771 125.414 222.771 125.271C222.769 125.13 222.732 124.99 222.663 124.866C222.593 124.742 222.49 124.639 222.366 124.569C222.246 124.489 222.105 124.446 221.961 124.447L181.744 123.677L184.189 96.1591L238.226 96.6724C241.638 97.0071 244.916 98.1751 247.771 100.074C250.626 101.972 252.971 104.543 254.599 107.561C256.778 111.23 257.614 115.542 256.963 119.76Z" fill="white" stroke="#888888" stroke-width="6.33584"/>
<path d="M151.402 125.703C146.12 125.15 138.676 116.666 139.622 107.507C140.567 98.3472 148.619 92.849 153.901 93.3758L197.779 93.6865C192.375 93.8892 187.39 99.8603 187.147 109.357C187.242 123.61 196.401 125.839 196.401 125.839H151.523" fill="#E0E0E0"/>
<path d="M151.402 125.703C146.12 125.15 138.676 116.666 139.622 107.507C140.567 98.3472 148.619 92.849 153.901 93.3758L197.779 93.6865C192.375 93.8892 187.39 99.8603 187.147 109.357C187.242 123.61 196.401 125.839 196.401 125.839H151.523" stroke="#888888" stroke-width="6.33584" stroke-linecap="round" stroke-linejoin="round"/>
<path d="M221.353 186.521C224.771 181.442 221.528 173.282 214.125 168.284C206.722 163.285 197.914 163.367 194.51 168.446C191.106 173.526 194.334 181.685 201.737 186.67C209.14 191.655 217.935 191.601 221.353 186.521Z" fill="white" stroke="#888888" stroke-width="6.33584"/>
<path d="M217.854 197.019C221.785 191.169 218.07 181.78 209.532 176.025C200.994 170.27 190.903 170.378 186.958 176.214C183.013 182.05 186.755 191.453 195.28 197.208C203.804 202.963 213.909 202.855 217.854 197.019Z" fill="#E0E0E0" stroke="#888888" stroke-width="6.33584"/>
<path d="M213.612 205.002C217.543 199.166 213.828 189.764 205.29 184.023C196.753 178.281 186.661 178.362 182.716 184.212C178.772 190.061 182.514 199.45 191.038 205.192C199.562 210.933 209.667 210.852 213.612 205.002Z" fill="white" stroke="#888888" stroke-width="6.33584"/>
<path d="M159.602 172.351C159.602 173.197 159.435 174.035 159.111 174.817C158.788 175.599 158.313 176.309 157.715 176.908C157.116 177.506 156.406 177.981 155.624 178.304C154.842 178.628 154.004 178.795 153.158 178.795C152.312 178.795 151.474 178.628 150.692 178.304C149.91 177.981 149.2 177.506 148.601 176.908C148.003 176.309 147.528 175.599 147.205 174.817C146.881 174.035 146.714 173.197 146.714 172.351C146.714 168.771 153.05 158.139 153.05 158.139C153.05 158.139 159.602 168.771 159.602 172.351Z" fill="white" stroke="#888888" stroke-width="6.33584"/>
<path d="M141.58 150.722C141.638 151.326 141.565 151.934 141.364 152.506C141.177 153.085 140.863 153.616 140.446 154.059C140.038 154.504 139.541 154.859 138.987 155.099C138.433 155.34 137.835 155.465 137.231 155.465C136.626 155.465 136.028 155.34 135.474 155.099C134.919 154.857 134.42 154.501 134.011 154.055C133.601 153.608 133.29 153.08 133.097 152.506C132.903 151.932 132.83 151.325 132.88 150.722C133.871 147.381 135.331 144.197 137.217 141.266C139.116 144.193 140.586 147.378 141.58 150.722Z" fill="white" stroke="#888888" stroke-width="6.33584"/>
</g>
<defs>
<clipPath id="clip0_1239:9526">
<rect width="292.57" height="233.97" fill="white" transform="translate(0.260498 0.277344)"/>
</clipPath>
</defs>
</svg>
