<svg width="120" height="94" viewBox="0 0 120 94" fill="none" xmlns="http://www.w3.org/2000/svg">
<path d="M112.647 54.1412C112.645 32.8231 99.4178 13.6483 79.2343 5.70459C59.0508 -2.23909 35.9672 2.64471 20.9238 18.0413C5.88053 33.4379 1.90063 56.2533 10.8704 75.674H107.907C111.038 68.9105 112.654 61.5682 112.647 54.1412Z" fill="#EBEFEE"/>
<path fill-rule="evenodd" clip-rule="evenodd" d="M0.998413 75.3928C0.998413 74.7652 1.50718 74.2565 2.13478 74.2565H5.46343C6.09102 74.2565 6.59979 74.7652 6.59979 75.3928C6.59979 76.0204 6.09102 76.5292 5.46343 76.5292H2.13478C1.50718 76.5292 0.998413 76.0204 0.998413 75.3928ZM6.88344 75.3928C6.88344 74.7652 7.39221 74.2565 8.01981 74.2565H111.874C112.501 74.2565 113.01 74.7652 113.01 75.3928C113.01 76.0204 112.501 76.5292 111.874 76.5292H8.01981C7.39221 76.5292 6.88344 76.0204 6.88344 75.3928ZM114.537 74.2565C113.909 74.2565 113.4 74.7652 113.4 75.3928C113.4 76.0204 113.909 76.5292 114.537 76.5292H117.865C118.493 76.5292 119.002 76.0204 119.002 75.3928C119.002 74.7652 118.493 74.2565 117.865 74.2565H114.537Z" fill="#CED7D4"/>
<ellipse cx="59.0547" cy="29.3645" rx="23.9663" ry="19.5865" fill="white"/>
<ellipse cx="26.6003" cy="52.8683" rx="3.49508" ry="2.93798" fill="white"/>
<ellipse cx="66.5441" cy="49.9302" rx="4.49368" ry="3.91731" fill="white"/>
<ellipse cx="100.496" cy="28.3851" rx="4.49368" ry="3.9173" fill="white"/>
<path d="M59.0547 94C80.012 94 97.0013 92.6846 97.0013 91.062C97.0013 89.4394 80.012 88.124 59.0547 88.124C38.0973 88.124 21.1081 89.4394 21.1081 91.062C21.1081 92.6846 38.0973 94 59.0547 94Z" fill="#EBEFEE"/>
<path d="M51.8648 7.23168C41.08 10.7573 34.0898 20.1588 33.5905 30.2459C31.1939 31.8128 28.997 33.3797 26.9998 35.1425C12.3205 47.6779 16.215 58.7443 35.6876 60.0174C55.1602 61.2905 82.7214 52.1828 97.4007 39.6474C111.98 27.2099 108.086 16.0456 88.6131 14.8704C86.0167 14.6746 83.4204 14.6746 80.6243 14.8704C73.6342 6.54615 61.7509 3.9999 51.8648 7.23168ZM26.8999 54.729C25.3022 55.2187 23.7044 54.729 23.305 53.4559C22.9056 52.2807 23.8043 50.9096 25.402 50.322C26.9998 49.8324 28.5975 50.322 28.997 51.5952C29.3964 52.8683 28.4977 54.2394 26.8999 54.729ZM67.4429 52.8683C65.5456 53.4559 63.5484 52.7704 63.0491 51.3014C62.5498 49.8324 63.6482 48.1675 65.5456 47.482C67.4429 46.8944 69.4401 47.5799 69.9394 49.0489C70.5385 50.5179 69.3402 52.2807 67.4429 52.8683ZM81.6229 23.5864C80.9239 26.0347 76.4302 32.5962 63.1489 37.0032C48.3697 41.8998 40.5807 39.6474 38.2839 37.8846C34.4893 27.0141 41.3796 14.8704 53.0631 10.9531C61.7509 8.01514 75.9309 9.97379 81.6229 23.5864ZM100.696 30.4417C99.0983 30.9314 97.5006 30.4417 97.1011 29.1686C96.7017 27.9934 97.6004 26.6223 99.1982 26.0347C100.796 25.5451 102.394 26.0347 102.793 27.3079C103.193 28.4831 102.294 29.9521 100.696 30.4417Z" fill="#CED7D4"/>
</svg>
