<svg width="293" height="235" viewBox="0 0 293 235" fill="none" xmlns="http://www.w3.org/2000/svg">
<g clip-path="url(#clip0_1239:9487)">
<path d="M277.965 137.232C277.955 118.682 273.515 100.368 264.969 83.6307C256.423 66.8933 243.988 52.1554 228.573 40.4949C213.158 28.8344 195.153 20.5462 175.875 16.2366C156.597 11.927 136.534 11.705 117.153 15.5866C97.7714 19.4683 79.5621 27.3556 63.8568 38.6716C48.1516 49.9876 35.3475 64.4462 26.3812 80.9897C17.4148 97.5333 12.5128 115.743 12.0338 134.288C11.5549 152.833 15.5111 171.244 23.613 188.174H266.131C273.94 172.186 277.976 154.811 277.965 137.232Z" fill="#F3F3F3"/>
<path fill-rule="evenodd" clip-rule="evenodd" d="M0.120364 186.575C0.119555 186.154 0.294303 185.751 0.606678 185.452C0.761524 185.302 0.946471 185.184 1.15063 185.103C1.35478 185.021 1.57403 184.98 1.7955 184.98H10.0902C10.3118 184.979 10.5312 185.02 10.7355 185.102C10.9397 185.183 11.1246 185.302 11.279 185.452C11.5914 185.751 11.7661 186.154 11.7653 186.575C11.7618 186.993 11.5842 187.394 11.2708 187.689C10.9574 187.985 10.5334 188.153 10.0902 188.156H1.7955C1.35231 188.153 0.928312 187.985 0.614923 187.689C0.301534 187.394 0.123896 186.993 0.120364 186.575ZM14.8049 186.575C14.8092 186.153 14.9887 185.75 15.3048 185.452C15.4591 185.302 15.644 185.183 15.8483 185.102C16.0526 185.02 16.272 184.979 16.4936 184.98H276.128C276.575 184.983 277.002 185.152 277.318 185.451C277.634 185.749 277.813 186.153 277.817 186.575C277.818 186.782 277.774 186.987 277.688 187.178C277.602 187.369 277.476 187.541 277.317 187.684C277.162 187.835 276.978 187.954 276.773 188.035C276.569 188.116 276.35 188.157 276.128 188.156H16.4936C16.272 188.157 16.0526 188.116 15.8483 188.035C15.644 187.954 15.4591 187.835 15.3048 187.684C15.148 187.54 15.0232 187.367 14.9374 187.177C14.8516 186.986 14.8066 186.782 14.8049 186.575ZM282.693 184.98C282.247 184.983 281.819 185.152 281.503 185.451C281.187 185.749 281.008 186.153 281.005 186.575C281.003 186.782 281.047 186.987 281.133 187.178C281.219 187.369 281.345 187.541 281.505 187.684C281.659 187.835 281.844 187.954 282.048 188.035C282.252 188.116 282.472 188.157 282.693 188.156H290.988C291.431 188.153 291.855 187.985 292.169 187.689C292.482 187.394 292.66 186.993 292.663 186.575C292.664 186.154 292.489 185.751 292.177 185.452C292.023 185.302 291.838 185.183 291.634 185.102C291.429 185.02 291.21 184.979 290.988 184.98H282.693Z" fill="#888888"/>
<path d="M144.035 233.393C189.534 233.393 226.36 230.229 226.36 226.338C226.36 222.447 189.507 219.309 144.035 219.309C98.5624 219.309 61.7092 222.447 61.7092 226.338C61.7092 230.229 98.5624 233.393 144.035 233.393Z" fill="#F3F3F3"/>
<path d="M123.49 181.599V103.802L73.3032 41.5647L98.4034 23.365L142.673 79.3738L186.254 22.1603L211.922 37.5402L161.87 104.584V181.599H123.49Z" fill="white" stroke="#888888" stroke-width="6.40832" stroke-linecap="round" stroke-linejoin="round"/>
<path d="M170.849 174.077H113.637V190.175H170.849V174.077Z" fill="white" stroke="#888888" stroke-width="6.40832" stroke-linecap="round" stroke-linejoin="round"/>
<path d="M186.962 4.35004L177.668 17.8185L218.641 43.2652L227.934 29.7968L186.962 4.35004Z" fill="white" stroke="#888888" stroke-width="6.40832" stroke-linecap="round" stroke-linejoin="round"/>
<path d="M94.7827 6.05925L55.8379 34.2266L66.1248 47.0285L105.07 18.8612L94.7827 6.05925Z" fill="white" stroke="#888888" stroke-width="6.40832" stroke-linecap="round" stroke-linejoin="round"/>
<path d="M144.186 164.104C149.901 164.104 154.534 159.709 154.534 154.287C154.534 148.865 149.901 144.469 144.186 144.469C138.471 144.469 133.838 148.865 133.838 154.287C133.838 159.709 138.471 164.104 144.186 164.104Z" fill="white" stroke="#888888" stroke-width="6.40832" stroke-linecap="round" stroke-linejoin="round"/>
<path d="M169.205 150.198H143.889V158.376H169.205V150.198Z" fill="white" stroke="#888888" stroke-width="6.40832" stroke-linecap="round" stroke-linejoin="round"/>
<path d="M169.678 146.52H211.098C212.891 146.947 214.507 147.878 215.734 149.191C216.96 150.503 217.741 152.136 217.974 153.877C217.943 155.775 217.248 157.609 215.998 159.092C214.749 160.574 213.015 161.621 211.071 162.067H169.678V146.52Z" fill="white" stroke="#888888" stroke-width="6.40832" stroke-linecap="round" stroke-linejoin="round"/>
</g>
<defs>
<clipPath id="clip0_1239:9487">
<rect width="292.57" height="233.97" fill="white" transform="translate(0.120361 0.277344)"/>
</clipPath>
</defs>
</svg>
